<?xml version="1.0" encoding="utf-8"?>
<!-- Generator: Adobe Illustrator 21.0.0, SVG Export Plug-In . SVG Version: 6.00 Build 0)  -->
<svg version="1.1" id="Capa_1" xmlns="http://www.w3.org/2000/svg" xmlns:xlink="http://www.w3.org/1999/xlink" x="0px" y="0px"
	 viewBox="0 0 487 390.5" enable-background="new 0 0 487 390.5" xml:space="preserve">
<g>
	<g>
		<path fill="#FFFFFF" d="M308.1,229.7c0,35.7-28.9,64.6-64.6,64.6c-35.7,0-64.6-28.9-64.6-64.6s28.9-64.6,64.6-64.6
			S308.1,194,308.1,229.7z M440.3,67.8c25.8,0,46.7,20.9,46.7,46.7v122.4v103.8c0,27.5-22.3,49.8-49.8,49.8H49.8
			C22.3,390.5,0,368.2,0,340.7V236.8V114.5l0,0c0-25.8,20.9-46.7,46.7-46.7h93.4l4.4-18.6c6.7-28.8,32.4-49.2,62-49.2h74.1
			c29.6,0,55.3,20.4,62,49.2l4.3,18.6H440.3L440.3,67.8z M97.4,135.2c0-12.9-10.5-23.4-23.4-23.4c-13,0-23.5,10.5-23.5,23.4
			s10.5,23.4,23.4,23.4C86.9,158.7,97.4,148.2,97.4,135.2z M358.7,229.7c0-63.6-51.6-115.2-115.2-115.2s-115.2,51.6-115.2,115.2
			s51.6,115.2,115.2,115.2S358.7,293.3,358.7,229.7z"/>
	</g>
</g>
</svg>
