<svg version="1.1" id="Capa_1" xmlns="http://www.w3.org/2000/svg" xmlns:xlink="http://www.w3.org/1999/xlink" x="0px" y="0px"
	 viewBox="0 0 13 18" enable-background="new 0 0 13 18" xml:space="preserve">
<g>
	<g>
		<path fill="#F15A24" d="M11.5,2.3H8.9c-0.3-1-1.3-1.8-2.4-1.8S4.4,1.2,4,2.3H1.5C0.7,2.3,0,2.9,0,3.7v12.7c0,0.8,0.7,1.5,1.5,1.5
			h10c0.8,0,1.5-0.7,1.5-1.5V3.7C13,2.9,12.3,2.3,11.5,2.3z M6.5,2.1C7,2.1,7.4,2.5,7.4,3S7,3.9,6.5,3.9S5.6,3.5,5.6,3
			S6,2.1,6.5,2.1z M10.4,15.6H2.6c-0.2,0-0.4-0.2-0.4-0.4V5.7c0-0.2,0.2-0.4,0.4-0.4h7.8c0.2,0,0.4,0.2,0.4,0.4v9.5
			C10.8,15.4,10.6,15.6,10.4,15.6z"/>
		<rect x="3.4" y="6.5" fill="#F15A24" width="6.2" height="1.1"/>
		<rect x="3.4" y="8.3" fill="#F15A24" width="6.2" height="1.1"/>
		<rect x="3.4" y="10.1" fill="#F15A24" width="6.2" height="1.1"/>
		<rect x="3.4" y="11.9" fill="#F15A24" width="3.1" height="1.1"/>
	</g>
</g>
</svg>
