<svg version="1.1" id="Layer_1" xmlns="http://www.w3.org/2000/svg" xmlns:xlink="http://www.w3.org/1999/xlink" x="0px" y="0px"
	 viewBox="0 0 512 300.8" enable-background="new 0 0 512 300.8" xml:space="preserve">
<g>
	<g>
		<path fill="#FFFFFF" d="M236,8.2L8.2,236C2.9,241.3,0,248.3,0,255.8c0,7.5,2.9,14.5,8.2,19.8L25,292.4c10.9,10.9,28.7,10.9,39.6,0
			l191.3-191.3l191.5,191.5c5.3,5.3,12.3,8.2,19.8,8.2c7.5,0,14.5-2.9,19.8-8.2l16.8-16.8c5.3-5.3,8.2-12.3,8.2-19.8
			c0-7.5-2.9-14.5-8.2-19.8L275.8,8.2C270.5,2.9,263.4,0,255.9,0C248.4,0,241.3,2.9,236,8.2z"/>
	</g>
</g>
</svg>
