<svg id="4bf8a51e-86d7-46e1-9cc7-a4aa0cab0d0a" data-name="80954194-c567-4d80-a02c-de6df5b3e75b" xmlns="http://www.w3.org/2000/svg" viewBox="0 0 740.66597 226.0296"><title>logo_2</title><g id="5816a1e6-6ca7-46d5-bb2d-df139b9aa666" data-name="9065eda5-dbfd-4c3c-ab39-f5e369aaad59"><path d="M285.0974,64.02131v43.23717H279.911V73.84231L264.406,97.06656h-3.21136l-15.5049-23.22425v33.41617h-5.1864V64.02131H244.948l17.85084,26.68285L280.6497,64.0213Z" fill="#fff"/><path d="M316.7797,63.27953c15.13407,0,22.60611,11.18094,22.60611,22.36035s-7.472,22.36035-22.60611,22.36035-22.60611-11.18094-22.60611-22.36035S301.64563,63.27953,316.7797,63.27953Zm0,4.94217c-11.73574,0-17.35638,8.523-17.35638,17.41825,0,8.89379,5.6206,17.41825,17.35638,17.41825S334.13608,94.5338,334.13608,85.64C334.13608,76.74459,328.51544,68.22169,316.7797,68.2217Z" fill="#fff"/><path d="M369.35542,63.27953a26.18592,26.18592,0,0,1,12.16694,2.90379v5.18791a20.60794,20.60794,0,0,0-11.30153-3.14955c-8.95558,0-18.2851,5.37336-18.34543,17.72726-.06334,11.55034,9.57375,17.10911,18.52933,17.10911a19.762,19.762,0,0,0,11.42817-3.14955v5.18791a27.38854,27.38854,0,0,1-12.53782,2.90379c-10.87338,0-22.73275-7.66051-22.66941-22.05127C346.686,70.93854,358.11417,63.27953,369.35542,63.27953Z" fill="#fff"/><path d="M390.41762,107.25849V64.02131H395.604V82.73611h9.821l13.03244-18.71479h5.93119L409.68879,85.08356l15.99643,22.17493H419.757l-14.145-19.5802H395.604v19.5802Z" fill="#fff"/><path d="M450.06133,63.27953c15.13407,0,22.60611,11.18094,22.60611,22.36035s-7.472,22.36035-22.60611,22.36035-22.60611-11.18094-22.60611-22.36035S434.92726,63.27953,450.06133,63.27953Zm0,4.94217c-11.73574,0-17.35638,8.523-17.35638,17.41825,0,8.89379,5.6206,17.41825,17.35638,17.41825S467.41771,94.5338,467.41771,85.64C467.41771,76.74459,461.79707,68.22169,450.06133,68.2217Z" fill="#fff"/><path d="M499.47093,64.02131c8.832,0,14.69985,3.644,14.69985,10.93216a9.55618,9.55618,0,0,1-6.91722,9.57374c3.58223.989,8.645,3.831,8.645,10.87185,0,9.821-9.634,11.85939-15.93614,11.85939H481.74363V64.02131Zm-.43422,4.94065H486.93005V82.42853h13.52686c4.511,0,8.4641-1.79259,8.4641-6.73329,0-5.1261-3.7692-6.73328-9.88434-6.73328Zm1.29662,18.40723H486.93005V102.3178h11.983c5.43669,0,11.73574-.3709,11.73574-7.475,0-6.73181-6.17547-7.47358-10.31554-7.47358Z" fill="#fff"/><path d="M525.24915,107.25849V64.02131H560.5167v43.23717h-5.1894V68.962H530.43557v38.29652Z" fill="#fff"/><path d="M587.0096,64.02131c10.008,0,18.34543,3.14955,18.34543,13.95958,0,10.80853-8.33746,13.95958-18.34543,13.95958h-9.57375v15.318h-5.18638V64.02131Zm.24725,4.94065h-9.821V86.99834h9.821c7.04084,0,12.84841-1.7293,12.84841-9.01742,0-7.35-5.74423-9.019-12.84837-9.019Z" fill="#fff"/><path d="M644.4581,107.25849V72.66783L618.4537,107.25849h-4.81551V64.02131h5.18638V98.54868L644.829,64.02139h4.81857v43.2371Z" fill="#fff"/><path d="M697.38961,64.02131v43.23717h-5.18944V88.04915H666.56665v19.20933h-5.18638V64.02131h5.18638V83.107h25.63352V64.02131Z" fill="#fff"/><path d="M740.666,64.02131V68.962H725.47158v38.29652h-5.18944V68.962H705.08783V64.02131Z" fill="#fff"/></g><g id="feec8ffe-8202-44a3-94d0-61a172e04658" data-name="f98c9cff-85ef-4f91-bc26-b0a30148e467" opacity="0.5"><path d="M261.376,142.73978a6.59827,6.59827,0,0,1-1.92882,4.92892,9.294,9.294,0,0,1-5.317,2.40127v.16856a10.299,10.299,0,0,1,5.8467,2.42234,6.53249,6.53249,0,0,1,1.989,4.95,7.92124,7.92124,0,0,1-3.22275,6.72834,14.92761,14.92761,0,0,1-9.09951,2.41331,20.20564,20.20564,0,0,1-8.80463-1.664v-3.328a21.48232,21.48232,0,0,0,8.88889,2.02212,10.53266,10.53266,0,0,0,6.30709-1.57977,5.31085,5.31085,0,0,0,2.13948-4.54974,4.71453,4.71453,0,0,0-2.36816-4.27594,13.74861,13.74861,0,0,0-7.06838-1.45339H244.146V148.9115h4.40232a12.1508,12.1508,0,0,0,6.68622-1.54969,4.88271,4.88271,0,0,0,2.37117-4.32709,4.35932,4.35932,0,0,0-1.70615-3.60191,7.20186,7.20186,0,0,0-4.59188-1.34808,15.452,15.452,0,0,0-4.19168.52658,17.16662,17.16662,0,0,0-4.33913,2.0853l-1.76934-2.40127a15.62537,15.62537,0,0,1,4.77244-2.3922,18.64878,18.64878,0,0,1,5.48559-.80944A11.877,11.877,0,0,1,258.689,137.167,6.67387,6.67387,0,0,1,261.376,142.73978Z" fill="#fff"/><path d="M284.79883,166.33109l-.6951-3.28594h-.16856a9.682,9.682,0,0,1-3.44543,2.93689,10.45525,10.45525,0,0,1-4.285.77033,7.70145,7.70145,0,0,1-5.38028-1.76934,6.45237,6.45237,0,0,1-1.94991-5.03423q0-6.99165,11.18483-7.33017l3.91785-.12638v-1.43234a5.82815,5.82815,0,0,0-1.17049-4.01112,4.79107,4.79107,0,0,0-3.73732-1.29693,15.234,15.234,0,0,0-6.52974,1.76934l-1.07424-2.6751a16.49987,16.49987,0,0,1,3.74032-1.45339,16.12364,16.12364,0,0,1,4.07431-.52658,8.80155,8.80155,0,0,1,6.12052,1.83257,7.66018,7.66018,0,0,1,1.989,5.87678v15.75563ZM276.9,163.86663a7.103,7.103,0,0,0,5.13052-1.79041,6.63551,6.63551,0,0,0,1.86263-5.01318v-2.0853l-3.49658.14745a12.75911,12.75911,0,0,0-6.01521,1.29391,3.91056,3.91056,0,0,0-1.84156,3.5718,3.59541,3.59541,0,0,0,1.14946,2.88573,4.766,4.766,0,0,0,3.21069.99006Z" fill="#fff"/><path d="M300.19642,166.33109h-3.49658V143.24522h19.37868v23.08588h-3.53872V146.27848H300.19646Z" fill="#fff"/><path d="M336.26651,166.75243a9.99243,9.99243,0,0,1-4.11645-.83051,7.74071,7.74071,0,0,1-3.12946-2.56076h-.25276a30.97642,30.97642,0,0,1,.25276,3.83359v9.49973H325.524V143.24532h2.84362l.48448,3.15956h.16856a8.12835,8.12835,0,0,1,3.13851-2.73829,9.53219,9.53219,0,0,1,4.10744-.84255,8.54343,8.54343,0,0,1,7.08945,3.13849,16.7242,16.7242,0,0,1-.04214,17.64237A8.5562,8.5562,0,0,1,336.26651,166.75243ZM335.761,145.794a6.19638,6.19638,0,0,0-5.11847,1.95893,10.07549,10.07549,0,0,0-1.62189,6.23486v.77942q0,4.8657,1.62189,6.96a6.16342,6.16342,0,0,0,5.20275,2.09734,5.41008,5.41008,0,0,0,4.68818-2.42234,11.50187,11.50187,0,0,0,1.69411-6.67721,11.05673,11.05673,0,0,0-1.69411-6.623A5.57618,5.57618,0,0,0,335.761,145.794Z" fill="#fff"/><path d="M368.5843,166.33109l-.6951-3.28594h-.16856a9.682,9.682,0,0,1-3.44543,2.93689,10.45525,10.45525,0,0,1-4.285.77033A7.70145,7.70145,0,0,1,354.61,164.983a6.45237,6.45237,0,0,1-1.94991-5.03423q0-6.99165,11.18483-7.33017l3.91785-.12638v-1.43234a5.82815,5.82815,0,0,0-1.17049-4.01112,4.79107,4.79107,0,0,0-3.73732-1.29693,15.234,15.234,0,0,0-6.52974,1.76934l-1.07424-2.6751a16.49987,16.49987,0,0,1,3.74032-1.45339,16.12364,16.12364,0,0,1,4.07431-.52658,8.80155,8.80155,0,0,1,6.12052,1.83257,7.66018,7.66018,0,0,1,1.989,5.87678v15.75563Zm-7.89887-2.46446a7.103,7.103,0,0,0,5.13052-1.79041,6.63551,6.63551,0,0,0,1.86263-5.01318v-2.0853l-3.49658.14745a12.75911,12.75911,0,0,0-6.01521,1.29391,3.91056,3.91056,0,0,0-1.84156,3.5718,3.59541,3.59541,0,0,0,1.14946,2.88573,4.766,4.766,0,0,0,3.21073.99006Z" fill="#fff"/><path d="M399.21095,149.03784a4.35884,4.35884,0,0,1-1.29691,3.42135,7.05976,7.05976,0,0,1-3.632,1.57076v.18957a7.48839,7.48839,0,0,1,4.306,1.72722,4.87676,4.87676,0,0,1,1.36012,3.66516,5.80252,5.80252,0,0,1-2.37119,4.971,11.548,11.548,0,0,1-6.91793,1.74829H380.48535V143.24534H390.617Q399.21095,143.24534,399.21095,149.03784Zm-3.41234.337a2.50048,2.50048,0,0,0-1.29691-2.3922,8.48936,8.48936,0,0,0-3.92686-.70413h-6.59295v6.50869h5.91888a9.43854,9.43854,0,0,0,4.57081-.80043,2.81436,2.81436,0,0,0,1.32708-2.61193Zm.653,10.00527a2.94286,2.94286,0,0,0-1.42029-2.72625,9.598,9.598,0,0,0-4.70925-.85459h-6.34015v7.60406h6.42443q6.04381,0,6.04534-4.0232Z" fill="#fff"/><path d="M421.13531,143.24532h3.83357L415.00573,154.388l10.78467,11.94306H421.704l-10.53187-11.69037v11.69037h-3.49658V143.24522h3.49658v11.227Z" fill="#fff"/><path d="M446.57727,166.33109l-.6951-3.28594h-.16856a9.682,9.682,0,0,1-3.44543,2.93689,10.45525,10.45525,0,0,1-4.285.77033,7.70145,7.70145,0,0,1-5.38028-1.76934,6.45237,6.45237,0,0,1-1.94991-5.03423q-.00006-6.99165,11.18483-7.33017l3.91785-.12638v-1.43234a5.82815,5.82815,0,0,0-1.17049-4.01112,4.79107,4.79107,0,0,0-3.73732-1.29693,15.23406,15.23406,0,0,0-6.52974,1.76938l-1.07424-2.6751a16.49987,16.49987,0,0,1,3.74032-1.45339,16.12363,16.12363,0,0,1,4.07431-.52658,8.80155,8.80155,0,0,1,6.12052,1.83257,7.66018,7.66018,0,0,1,1.989,5.87678v15.75559Zm-7.89887-2.46446a7.103,7.103,0,0,0,5.13052-1.79041,6.63551,6.63551,0,0,0,1.86263-5.01318v-2.0853l-3.49658.14745a12.75911,12.75911,0,0,0-6.01521,1.29391,3.91056,3.91056,0,0,0-1.84156,3.5718,3.59541,3.59541,0,0,0,1.14946,2.88573,4.766,4.766,0,0,0,3.21069.99006Z" fill="#fff"/><path d="M485.34958,143.24532h3.83357L479.22,154.388l10.78463,11.94312h-4.08637l-10.53187-11.69037v11.69031h-3.49658V143.24522h3.49658v11.227Z" fill="#fff"/><path d="M510.7915,166.33109l-.6951-3.28594h-.16856a9.682,9.682,0,0,1-3.44543,2.93689,10.45525,10.45525,0,0,1-4.285.77033,7.70145,7.70145,0,0,1-5.38028-1.76934,6.45237,6.45237,0,0,1-1.94991-5.03423q0-6.99165,11.18483-7.33017l3.91785-.12638v-1.43234a5.82815,5.82815,0,0,0-1.17049-4.01112,4.79107,4.79107,0,0,0-3.73732-1.29693,15.234,15.234,0,0,0-6.52974,1.76934l-1.07424-2.6751a16.49987,16.49987,0,0,1,3.74032-1.45339,16.12364,16.12364,0,0,1,4.07431-.52658,8.80155,8.80155,0,0,1,6.12052,1.83257,7.66018,7.66018,0,0,1,1.989,5.87678v15.75563Zm-7.89887-2.46446a7.103,7.103,0,0,0,5.13052-1.79041,6.63551,6.63551,0,0,0,1.86263-5.01318v-2.0853l-3.49658.14745a12.75911,12.75911,0,0,0-6.01521,1.29391,3.91056,3.91056,0,0,0-1.84156,3.5718,3.59541,3.59541,0,0,0,1.14946,2.88573,4.766,4.766,0,0,0,3.21073.99006Z" fill="#fff"/><path d="M533.432,166.75243a9.99243,9.99243,0,0,1-4.11645-.83051,7.74071,7.74071,0,0,1-3.12946-2.56076h-.25276a30.97642,30.97642,0,0,1,.25276,3.83359v9.49973h-3.49658V143.24532h2.84362l.48448,3.15956h.16856a8.12835,8.12835,0,0,1,3.13851-2.73829,9.53219,9.53219,0,0,1,4.10744-.84255,8.54343,8.54343,0,0,1,7.08945,3.13849,16.7242,16.7242,0,0,1-.04214,17.64237A8.5562,8.5562,0,0,1,533.432,166.75243Zm-.50551-20.95841a6.19638,6.19638,0,0,0-5.11847,1.95893,10.07549,10.07549,0,0,0-1.62189,6.23486v.77942q.00006,4.8657,1.62189,6.96a6.16342,6.16342,0,0,0,5.20275,2.09734,5.41008,5.41008,0,0,0,4.68818-2.42234,11.50187,11.50187,0,0,0,1.69411-6.67721,11.05673,11.05673,0,0,0-1.69411-6.623A5.57618,5.57618,0,0,0,532.92652,145.794Z" fill="#fff"/><path d="M566.89929,146.23636h-7.49871v20.09473H555.904V146.23636h-7.41443v-2.991h18.40972Z" fill="#fff"/><path d="M584.70715,166.75243a9.99243,9.99243,0,0,1-4.11645-.83051,7.74071,7.74071,0,0,1-3.12946-2.56076h-.25276a30.97642,30.97642,0,0,1,.25276,3.83359v9.49973h-3.49658V143.24532h2.84362l.48448,3.15956h.16856a8.12835,8.12835,0,0,1,3.13851-2.73829,9.53219,9.53219,0,0,1,4.10744-.84255,8.54343,8.54343,0,0,1,7.08945,3.13849,16.7242,16.7242,0,0,1-.04214,17.64237A8.5562,8.5562,0,0,1,584.70715,166.75243Zm-.50551-20.95841a6.19638,6.19638,0,0,0-5.11847,1.95893,10.07549,10.07549,0,0,0-1.62189,6.23486v.77942q-.00006,4.8657,1.62189,6.96a6.16342,6.16342,0,0,0,5.20275,2.09734,5.41008,5.41008,0,0,0,4.68818-2.42234,11.50187,11.50187,0,0,0,1.69411-6.67721,11.05672,11.05672,0,0,0-1.69411-6.623A5.57618,5.57618,0,0,0,584.20164,145.794Z" fill="#fff"/><path d="M605.88522,143.24532v14.63929l-.14745,3.83359-.06321,1.20064,12.49076-19.67352h4.36016V166.3312h-3.26485V152.21847l.06321-2.78041.10535-2.73829-12.46973,19.63132h-4.3602V143.24522Z" fill="#fff"/><path d="M652.46615,174.31431h-3.39127v-7.98321H632.9401v7.98315h-3.3702V163.319h1.81152a30.09259,30.09259,0,0,0,4.42337-8.9942,38.5784,38.5784,0,0,0,1.664-11.0795h11.69035V163.319h3.307ZM645.789,163.319V146.00463h-5.18172a38.51422,38.51422,0,0,1-1.80247,9.46965,26.61581,26.61581,0,0,1-3.80049,7.84474Z" fill="#fff"/><path d="M671.899,143.28744h3.22271v11.18483l9.54179-11.18483H688.497l-9.64722,11.18483,10.4687,11.85889h-4.04427l-10.15265-11.69037v11.69031h-3.22271V154.64073L661.7672,166.33109H657.744l10.44763-11.85889-9.62615-11.18483h3.83365l9.49973,11.18483Z" fill="#fff"/><path d="M704.09633,166.75243a10.608,10.608,0,0,1-8.07941-3.11742,12.07975,12.07975,0,0,1-2.95794-8.6572,13.39849,13.39849,0,0,1,2.74732-8.86782,9.13655,9.13655,0,0,1,7.38435-3.28594,8.70988,8.70988,0,0,1,6.86674,2.85263,10.94641,10.94641,0,0,1,2.52765,7.53177v2.21168h-15.9031a9.14138,9.14138,0,0,0,2.05522,6.17167,7.09306,7.09306,0,0,0,5.48559,2.10631,18.60807,18.60807,0,0,0,7.37233-1.55872v3.11742a18.38451,18.38451,0,0,1-3.50559,1.14648A19.51287,19.51287,0,0,1,704.09633,166.75243Zm-.9479-21.00053a5.71955,5.71955,0,0,0-4.43538,1.81148,8.34917,8.34917,0,0,0-1.94691,5.01318h12.06952a7.6722,7.6722,0,0,0-1.47448-5.06431A5.1875,5.1875,0,0,0,703.14844,145.7519Z" fill="#fff"/><path d="M724.02559,143.24532v14.63929l-.14741,3.83359-.06321,1.20064,12.49076-19.67352H740.666V166.3312h-3.26485V152.21847l.06321-2.78041.10535-2.73829-12.46977,19.63132h-4.36016V143.24522Zm6.59291-3.05429a8.7602,8.7602,0,0,1-5.68723-1.50759,6.71163,6.71163,0,0,1-2.00107-4.959h3.28592a4.53175,4.53175,0,0,0,1.14946,3.05429,5.00485,5.00485,0,0,0,3.33711.86362,4.72394,4.72394,0,0,0,3.21069-.92681,4.51282,4.51282,0,0,0,1.27588-2.991h3.307a6.74954,6.74954,0,0,1-2.1274,4.89882,8.83579,8.83579,0,0,1-5.75028,1.56775Z" fill="#fff"/></g><g id="a0fd5012-ddbf-418a-8fe7-0f5ff666f7ba" data-name="48811db8-bff0-409d-be6c-a3f4fdacff72"><g id="a28b9010-3cca-4207-8e1b-845cd7afddc1" data-name="21b3131d-a21e-48d5-ab78-c89959f26e3c"><g id="31ee26c4-7638-4772-9c9d-4bf66489ec55" data-name="8044ac5e-a231-431f-a9cc-bfbdd800239e"><path d="M88.78882,16.64257a13.40774,13.40774,0,0,1,2.75427-2.18933V14.4334c2.76221-1.64868,7.16187-2.844,11.27313,2.20917,0,0,1.87726-5.21619-2.838-7.58954-3.07745-1.52142-3.84357-4.80414-4.018-6.8252a1.19179,1.19179,0,0,0,.91284-1.1145A1.15515,1.15515,0,0,0,95.75867.00017a1.096,1.096,0,0,0-1.1149,1.07677h0q-.00032.01819,0,.03639a1.07074,1.07074,0,0,0,.96783,1.1145c-.5267,2.02106-1.70144,5.21484-3.89828,6.32764-.06982.03436-.13629.07617-.2052.11279v.02057C88.30084,10.41217,86.13037,14.47124,88.78882,16.64257Z" fill="#fff"/><path d="M71.34875,100.94249l1.81732-2.43109,1.69971.70276,2.02069-1.58344,2.756.61737,2.4314-1.69965,3.36993.82074,3.51514-1.7301,2.02075,1.7301.52838-.297,2.54913-1.43311,2.87091,1.73011,3.05017-.82074,2.373,1.963,2.07568-.79169,1.84637,1.64117,1.26514-.263a6.67962,6.67962,0,0,1,1.5799,1.02386c-2.66711-9.78467-15.0611-18.25452-15.0611-18.25452-.02911-1.43634-1.96259-3.57367-1.96259-3.57367a3.78281,3.78281,0,0,0-.58655-.28955c-2.42444-.9787-5.89.28955-5.89.28955-2.31342.58478-1.67053,3.31036-1.67053,3.31036C73.51659,90.54052,69.591,97.51453,68.801,102.73072l.99512-1.78821Z" fill="#fff"/><path d="M71.34875,144.04485l6.7688-2.60895L91.5081,140.323l1.05328-.08752,12.1012,1.31976,3.89825,2.48956c.35229-8.05975-4.62964-8.05975-4.62964-8.05975l-.99518-6.50378v-5.27295l-2.98853-2.14044-8.41034-1.19861-.02905.00372-9.31793,1.19489-4.89337,2.14044.05811,4.27605-.26331-.29059,2.11,2.46051v-6.70929h.76227v7.56055a6.80778,6.80778,0,0,0-3.25183,3.25183l.37952-6.5636-.37952-.38306-1.37787,6.88849c-1.67053-.17749-3.98547,3.60413-3.98547,3.60413Zm24.468-7.26984c3.5152-2.66357,6.38751,3.02283,6.38751,3.02283-3.16648-3.929-6.38749-3.02283-6.38749-3.02283Zm4.33588-10.45837a11.43592,11.43592,0,0,1,2.05164,4.07263,24.47639,24.47639,0,0,1-1.70288-3.13385c-1.16943,1.5813-1.55249,5.18713-1.55249,5.18713l2.02411,1.14221c-3.39886-1.874-5.15625-1.14221-5.15625-1.14221.14349-.56091,2.01758-.937,2.01758-.937,0-2.55086,2.31831-5.18892,2.31831-5.18892ZM95.232,122.62358h1.04974v7.97266H95.232Zm.58478,10.96118c-1.23114-1.02942-3.25537,1.17267-3.25537,1.17267C95.61157,129.86437,95.81677,133.58476,95.81678,133.58476Zm-9.55219-10.96118h1.11279v6.30206a40.94846,40.94846,0,0,1,4.13074-4.49255c.0755-.07074.118-.10986.118-.10986l1.963,3.87061-1.69965-2.756a2.00477,2.00477,0,0,0-.38129.33221c-1.51428,1.61768-3.83838,7.22649-3.83838,7.22649H85.61816a3.43948,3.43948,0,0,1,.64642-2.40027Zm-.64642,8.17786c-.82074-.41217-1.40552.70416-1.40552.70416l-1.64111-5.189Zm3.92737,7.502c-4.0744-3.98682-8.08716.90625-8.08716.90625,4.95148-7.11937,8.08716-.9063,8.08716-.9063Zm-8.93872-4.192c-1.0238-.52667-2.81238.646-2.81238.646C79.96393,130.80144,80.60681,134.11144,80.60681,134.11144Z" fill="#fff"/><path d="M71.81732,149.66973l2.84143-.937-.14526,1.173-2.6073.90967v1.75391l2.4021-.90582-2.4021,21.97314s7.58917-2.19513,7.50067-2.57819c-.02911-.08893-.55743-2.81067-1.202-6.384h.64459v-14.567l1.1145-.08893v14.656h.64288V149.96385l3.60583-.26331-4.80579,21.35791,12.10126-.52594.64465-.028-.64465-2.4389-4.89307-18.51215,4.36469-.32489V164.6745h.64636V149.1704l.46857-.05463.64459.05463v15.50409H93.413V149.25933l3.956.32147L92.15282,170.5045l5.47949-.17786,6.299,1.29272L99.274,149.75865l3.30988.29065v14.62518h.67377V150.13823l.236.02728.43774.26685v14.24213h.64282V150.87l1.672,1.08411-2.31482,19.66522,4.192,2.01727-1.14532-21.2417.17786.17438v-1.75391l-.32147-.2052-.05811-1.262,1.347.81726v-3.1629l-4.192-2.43109-11.6315-1.37466-.79169.06989-13.77185,1.21588-6.38751,2.52Zm6.38751,14.97394c-.79-4.25049-1.78687-9.72827-2.48926-13.51031l2.48926-.90619ZM103.93121,147.649l2.63977,1.61035-.11975,1.02594-2.52-1.819-5.04041-.55389-.20532-1.08411Zm-12.4231-1.68066.84979-.08057,5.7428.87885-.26636,1.05676-5.47644-.67371-.84979.07178-5.39056.4549-.29236-1.16949Zm-12.39368,1.18134,5.801-.49579-.29236,1.16949-4.0163.35223v-.05811H79.9639v.11945l-.76227.02765L75.3923,149.5808a8.07635,8.07635,0,0,0-.2052-1.05292Z" fill="#fff"/><polygon points="77.415 175.34 91.127 174.666 91.508 174.699 103.931 175.777 108.123 177.771 110.23 175.982 103.931 173.636 91.508 172.95 91.245 172.936 75.656 173.636 68.506 175.982 70.236 178.355 77.415 175.34" fill="#fff"/><path d="M90.13025,57.72386a1.192,1.192,0,0,0-.90619-1.14362c-.20691-3.60413-.325-6.24072-.325-6.24072,0,1.5816-.14526,3.80933-.29236,6.27161a1.13141,1.13141,0,0,0-.819,1.11273,1.15351,1.15351,0,0,0,.64288,1.055C87.84581,66.60272,86.907,75.62653,86.907,75.62653a5.59826,5.59826,0,0,1,2.052-.38136,5.4044,5.4044,0,0,1,2.02075.38135C90.395,74.688,89.74892,65.811,89.3694,58.83525A1.15334,1.15334,0,0,0,90.13025,57.72386Z" fill="#fff"/><path d="M63.3797,140.49889l1.903-1.81592,1.52313,2.28442,1.34918-1.55261.32147,1.78857,1.49585-1.20032.02905-1.02594a67.29125,67.29125,0,0,0-7.8819-.67371Z" fill="#fff"/><path d="M66.38037,136.14733l.027.00281-.01184-.018Z" fill="#fff"/><path d="M64.49274,138.037l1.88763-1.88965q-1.59282-.17642-3.08966-.2785Z" fill="#fff"/><path d="M57.7821,111.98735a2.08865,2.08865,0,0,0,.369,1.18274,2.29034,2.29034,0,0,0,.80194.72351c-.00464.06293-.00995.1236-.01489.186-.14429,1.85791-.34283,3.51984-.56946,4.7655a12.805,12.805,0,0,1-6.53491,9.52479,15.00049,15.00049,0,0,0-6.07965,6.498,10.86342,10.86342,0,0,0-.68738,2.11572l.68738.25342.42572.157.52661-1.58344,1.67023.90973.70282-1.69965,1.73041.84808,1.49237-1.78473,1.37817,1.55225,1.55225-2.17133,1.58337,1.84637,1.845-1.84637,1.78827,1.8772,1.67023-2.07892,1.26019,2.25323,1.903-1.84631,1.52313,2.28406,1.34918-1.55225.32147,1.78821,1.49585-1.2276.4104,1.73041c-1.38385-.22467-2.70282-.40155-3.9754-.54291l1.51349,2.29681,1.34869-1.5249.32153,1.76093.46844-.35223v-.499c-.08716-1.69965,3.10657-3.83667,3.10657-3.83667-.85126-4.21967-9.23071-9.2002-9.23071-9.2002-1.64117-2.609-2.57642-6.71069-3.07574-10.8432a2.10624,2.10624,0,0,0-.41034-4.04181,101.34127,101.34127,0,0,1-.17615-10.19855l-.26331-5.33246s-.26514,8.26324-.73187,15.58771A2.18413,2.18413,0,0,0,57.7821,111.98735Z" fill="#fff"/><path d="M45.75409,137.90386c-.32886.12805-.63263.25293-.89435.36877a7.74706,7.74706,0,0,0-.05811.79346l.95245.30218,1.53711.48773.49933-1.55261,1.69934.90625.7027-1.64117,1.72833.82037,1.49622-1.78467,1.37646,1.55219,1.554-2.17126,1.55261,1.84668,1.87366-1.8775,1.78851,1.90833,1.58136-1.99377C54.24518,135.288,48.66772,136.76879,45.75409,137.90386Z" fill="#fff"/><path d="M48.58185,144.95416c6.38788-5.94977,21.27246-1.2616,21.27246-1.2616l.05811-2.07922c-12.65869-1.96259-20.27557-.17749-23.96686,1.16956A6.15845,6.15845,0,0,0,48.58185,144.95416Z" fill="#fff"/><path d="M48.37665,141.72649l.70282-1.66876,1.73041.8515,1.49237-1.84314,1.37817,1.57989,1.55225-2.17133a30.206,30.206,0,0,0-9.47858,2.38886c-.23975.11145-.44983.21558-.62921.30908a6.19487,6.19487,0,0,0,.43939.99829l.18982.06323.42572.14191.52661-1.61035Z" fill="#fff"/><path d="M58.661,138.44695l1.78827,1.93567,1.641-2.07922a51.18969,51.18969,0,0,0-6.85767.17126L56.816,140.321Z" fill="#fff"/><path d="M68.50555,146.18187v-.79c-11.42615-4.59888-18.89777.41388-18.89777.41388l.58478.90271C56.31854,142.19817,68.50555,146.18187,68.50555,146.18187Z" fill="#fff"/><path d="M67.74469,147.4984s-7.20831-3.33374-16.93481-.08191v.701s11.221-3.13245,16.93481.34875Z" fill="#fff"/><path d="M67.36334,157.93474v-1.11493s-10.46008-2.87225-16.55347.11627v.99866S62.17761,155.442,67.36334,157.93474Z" fill="#fff"/><path d="M51.16034,148.46623v7.03387a49.93991,49.93991,0,0,1,16.203,0v-6.27155S62.29419,145.686,51.16034,148.46623Zm2.19861,5.42316H52.33124v-4.66083H53.359Zm6.18231-.73181h-.96747v-4.69135h.96747Zm5.2149-3.72388h.99646v4.71906h-.99646Z" fill="#fff"/><path d="M67.36334,165.96018s2.10968-.43768,3.75116,2.96124l.23425-1.93561-.2052-.26331a10.49292,10.49292,0,0,0-3.39886-1.78473s-2.402-.35223-3.69135,2.51654c0,0-1.58337-2.57471-3.45886-2.92694,0,0,1.58313-3.92554,3.45886-4.19238,0,0,3.13385,1.37823,3.69135,2.934a11.48656,11.48656,0,0,1,1.93347-2.46545l-2.31482-1.49408c-9.90265-4.07263-17.17078.44086-17.17078.44086v4.19238a5.57339,5.57339,0,0,1,1.5249.49579c.67371-3.9256,4.365-5.98059,4.365-5.98059,3.399,1.7301,3.517,4.16156,3.34088,5.365a.0876.0876,0,0,1,.05811-.03076s0,.03076-.05811.06165c-.089.4068-.14539.67365-.14539.67365,0-.20868-.029-.4104-.029-.52661-.88031.58478-3.86926,2.86877-4.71869,5.33105,6.12415,2.02075,4.95117,4.45532,4.95117,4.45532-.64288-2.43457-4.24878-3.02283-4.24878-3.02283-4.746.29413-6.00623,5.3927-6.00623,5.3927,0-4.15808,4.30688-6.50378,5.04047-6.8252-.41034-1.084-1.52527-3.83661-4.07434-5.01312v.61908c-2.51831,1.46326-3.10486,4.71545-3.25183,6.24042a2.12276,2.12276,0,0,1,.93872.44116c.05817,0,.08722,0,0,.02386a3.32644,3.32644,0,0,1,.70239,1.99341,3.01475,3.01475,0,0,0-1.49414-1.61035,4.12361,4.12361,0,0,0-1.33362,2.2467,18.05074,18.05074,0,0,0-.62921,3.02936l-2.72534.05817v1.37817l3.35455-.07611,13.52386-.30695,8.46674-3.22461,2.756-.90613.26147-2.10968a7.58992,7.58992,0,0,0-6.006-1.61072S64.05334,167.74846,67.36334,165.96018ZM55.58319,176.803h-1.2V172.936h1.2Zm13.45068-3.01585s-5.39093.11627-8.90613,2.36987c0,0,1.11322-4.42487,4.10175-4.80444C64.22949,171.35259,67.77368,172.0844,69.03387,173.78717Z" fill="#fff"/><path d="M54.38318,167.45433a7.10108,7.10108,0,0,1,4.8349-3.60059,4.4503,4.4503,0,0,0-3.25183-4.10345c-1.84637-.44086-3.98541,4.13074-4.21973,4.68817A5.26613,5.26613,0,0,1,54.38318,167.45433Z" fill="#fff"/><path d="M51.98083,118.4074l2.11-2.02246,1.67017,2.46024,1.43628-1.69965.26337,1.31653c.118-.73181.26331-1.40375.35052-1.95911-2.60767-.325-4.98059-.52838-7.20831-.58826Z" fill="#fff"/><path d="M56.96136,116.12163l.7027-.79346a2.01238,2.01238,0,0,1-.93518-1.55261c-1.67059-.20343-3.31177-.35046-4.808-.46814l1.29112,2.34575,2.07916-2.02283Z" fill="#fff"/><path d="M45.75409,115.97362q-1.39774.07013-2.65173.20435l1.67023,2.02423.98151-.99518,1.07037-1.08539,1.96253,2.08054,1.81586-2.28754C48.84125,115.879,47.23456,115.89928,45.75409,115.97362Z" fill="#fff"/><polygon points="55.233 122.623 48.758 121.69 45.754 122.055 41.08 122.623 36.393 124.795 36.393 126.022 41.668 123.914 45.754 123.503 48.64 123.212 54.209 124.032 55.233 122.623" fill="#fff"/><polygon points="54.002 124.795 48.729 124.061 45.754 124.37 41.668 124.795 37.536 126.552 37.536 128.837 41.668 126.552 45.754 126.239 48.582 126.022 51.16 126.552 54.002 124.795" fill="#fff"/><polygon points="49.9 127.781 47.967 127.255 45.754 127.492 41.668 127.929 38.267 129.864 38.267 132.148 41.668 130.242 45.754 129.987 47.732 129.864 49.9 127.781" fill="#fff"/><path d="M46.82446,131.063l-1.07037.05249-3.73578.18317-3.75128,1.9339v6.91412L39.8504,138.683l1.11456,1.173,1.61072-2.46191,1.26025.9093a10.65442,10.65442,0,0,1,1.91815-6.104A7.28414,7.28414,0,0,1,46.82446,131.063Z" fill="#fff"/><path d="M77.59088,86.70217l-1.40723.11627v1.37817C76.62311,87.699,77.09161,87.22881,77.59088,86.70217Z" fill="#fff"/><path d="M78.17566,86.0866a69.69052,69.69052,0,0,1,5.53949-5.12732s-.735-2.93042,1.7287-3.48608c0,0,3.549-1.28375,6.06427-.33533a3.95366,3.95366,0,0,1,.70276.33533,8.20645,8.20645,0,0,1,.73181.87714l1.37781-1.61072,4.68994,5.12762,2.69446-2.4024,2.722-2.22766,2.60907,4.572-2.75256-2.84186-2.07916,1.7287v1.23077L100.23805,83.305v2.78162a4.79324,4.79324,0,0,1,.588.52838,10.99738,10.99738,0,0,1,5.803-.49933l-.2052-.23425V83.0399l2.137-1.81555,1.52533,3.25189L108.619,82.4243l-1.583,1.73047v2.0498a6.57538,6.57538,0,0,1,4.30859,4.247,7.6447,7.6447,0,0,0-9.7287-3.07574,56.28724,56.28724,0,0,1,3.80939,4.33594c5.00958.52838,7.15,7.50238,7.15,7.50238-1.52478-3.84015-3.89819-5.15674-5.741-5.538,3.1048,4.572,4.95117,9.90442,2.81061,15.05939l1.20392.47021c3.71692-1.58337,1.7265-3.693,1.7265-3.693,3.45709,2.34393,0,5.30341,0,5.30341a9.81059,9.81059,0,0,1-3.84009-.32141,10.52647,10.52647,0,0,1-1.04974,1.49268h9.195l-.31787-5.53625c1.25842-13.88953-1.32324-16.70227-1.32324-16.70227V86.615l-1.49091-1.84637.41034-3.51691,2.40381-2.02289-3.9256-2.25494V74.04517h-1.2924l-8.76086-.7627-4.95148-2.10962-6.12415,2.07592-.52838.17908h-.08716a5.67613,5.67613,0,0,0,.4104,2.02246l.20514.32129.46851.7337-.46851-.2041-.67371-.29346a3.49268,3.49268,0,0,0-1.87543-.4104,4.85138,4.85138,0,0,0-1.90479.4104l-.55713.17609.05988-.58649c0-.03082.05811-.84979.17572-2.16949h-4.2774l-.73358,3.546v-4.4522l5.15637-.354c.32141-3.28094.84979-8.43726,1.17126-13.15454a1.64,1.64,0,0,1-.64288-1.28925,1.45374,1.45374,0,0,1,.84979-1.34875c.17444-2.57678.70276-9.22937.70276-9.22937s.4104,5.77228.58655,9.17126a1.4684,1.4684,0,0,1,.90613,1.40686,1.59524,1.59524,0,0,1-.70276,1.34741c.38135,6.5636.70276,10.49091.96753,12.89294h.26331l.52838-.20282,6.65083-2.55322,5.68329,3.31348,7.50237,1.52352L99.50635,37.73888V34.576c-4.07263-3.51691-7.94012,0-7.94012,0v3.31l-.05811.184L79.31787,76.65245l-4.45209,1.81549,2.92865,2.43146Zm35.98315,10.16772c-.73187-2.34393-2.81421-.82043-2.81421-.82043C113.42694,91.65367,114.15881,96.25432,114.15881,96.25432Z" fill="#fff"/><path d="M74.30829,131.063l1.22937-4.51032V124.7949l-.67187-1.52319V117.6721l-1.4364-1.49414-3.517,2.491.79169,1.75775v6.82867C71.93536,127.664,74.30829,131.063,74.30829,131.063Z" fill="#fff"/><polygon points="59.278 180.438 45.754 180.438 41.608 180.438 41.608 184.596 45.754 184.596 45.946 184.596 50.193 182.544 68.506 182.544 68.506 179.44 66.779 177.36 59.278 180.438" fill="#fff"/><polygon points="68.506 183.779 50.311 183.779 45.754 185.915 45.067 186.237 41.608 186.237 31.823 192.42 45.067 188.145 45.754 188.129 67.363 187.615 69.386 185.916 68.506 183.779" fill="#fff"/><polygon points="68.506 196.903 69.386 195.35 69.386 190.925 66.016 188.73 46.883 188.73 46.883 191.804 45.754 192.442 45.067 192.83 45.754 193.495 46.883 194.587 46.883 196.903 68.506 196.903" fill="#fff"/><path d="M33.66821,113.22026l1.87531.99475.79175-1.81549,1.87366.9079,1.67059-1.963,1.465,1.69965,1.73047-2.34424,1.69757,2.02283.98151-.99542,1.07037-1.08557,1.96259,2.081,1.81586-2.2879,1.37793,2.49133,2.11-2.02106,1.67023,2.46051.84979-.96606c.08722-2.66711,1.61072-3.04669,1.61072-3.04669l.35223-3.80933a43.22076,43.22076,0,0,0-5.97742-4.39581c-1.7865-2.84326-2.84326-7.35529-3.39893-11.83832a2.38507,2.38507,0,0,0,1.49445-2.16779,2.3439,2.3439,0,0,0-1.90489-2.284,101.93991,101.93991,0,0,1-.236-11.16461l-.292-5.83038s-.23291,9.05316-.79,17.08215a2.32923,2.32923,0,0,0-1.61243,2.1969,2.265,2.265,0,0,0,1.291,2.0498c-.20691,2.14081-.38129,4.01624-.64636,5.45081a16.65634,16.65634,0,0,1-.74719,2.901,13.88475,13.88475,0,0,1-6.43024,7.56085c-.99689.64465-6.18408,3.63147-7.4425,9.4342l1.25842.41034Z" fill="#fff"/><path d="M34.89722,115.94548l1.87756,1.02417.7608-1.84491,1.87366.937,1.67059-1.96472,1.4668,1.70136,1.7287-2.37329,1.47876,1.75867.22058.26239,2.05145-2.08057,1.992,2.08057,1.69934-2.13873c-2.167-.13464-4.14716-.158-5.96338-.10492-7.27014.21246-11.79865,1.70386-14.04889,2.71216a4.5037,4.5037,0,0,0-.05988.87891l2.72705.87854Z" fill="#fff"/><path d="M35.77777,123.27172c2.51849-2.35193,6.24072-3.18286,9.97632-3.28918a44.85076,44.85076,0,0,1,10.8277,1.23553,9.16931,9.16931,0,0,0,.64288-1.87537,71.78131,71.78131,0,0,0-11.47058-.66315,39.50056,39.50056,0,0,0-12.87756,2.21881A7.1575,7.1575,0,0,0,35.77777,123.27172Z" fill="#fff"/><path d="M35.54352,119.69493l.79175-1.81763,1.87366.90967,1.67059-1.96436,1.465,1.69928,1.69971-2.34393c-5.97711.6156-9.52142,2.11145-11.01758,2.93219a6.26719,6.26719,0,0,0,.43945,1.11139l.67365.2052.52844-1.7287Z" fill="#fff"/><path d="M37.53558,144.95416c1.90448-2.43457,6.5636-2.34564,6.5636-2.34564a6.07651,6.07651,0,0,1-.61554-2.46191,1.56193,1.56193,0,0,0-1.75775,1.0567l-1.9917-1.0567-2.19861,1.0567-1.72864-1.0567-1.32013,3.89819A5.427,5.427,0,0,1,37.53558,144.95416Z" fill="#fff"/><path d="M35.747,151.13335c-.67194-2.07568.64642-4.68469.64642-4.68469-.79169-1.43628-3.92731-1.49445-3.92731-1.49445C29.799,147.67632,30.064,153.568,30.064,153.568Z" fill="#fff"/><path d="M45.75409,150.99669l4.43848-.01038-.32141-3.163L48.729,146.27077a5.53431,5.53431,0,0,1-2.97485-1.43243,13.24553,13.24553,0,0,1-1.44965-1.38177c-8.819,1.49762-7.32635,7.56055-7.32635,7.56055Z" fill="#fff"/><path d="M30.18207,156.23509l.08539,6.26807,6.71063-2.4931,8.776-.22778,3.47235-.09015a4.52552,4.52552,0,0,1,.52667-1.75739l-.02728-1.17651.58472-1.25812V153.568H35.86505Zm1.40509,4.65735h-.73181v-2.9577h.73181Zm1.93567-.32141h-.76434v-2.96124h.76434Zm1.69757-1.08411h-.73358v-2.93042h.73358Zm10.22583-4.33905h.99518v3.95947h-.99518Zm-3.83838,0h.96783v3.95947h-.96783Zm-4.0127.29413h.96429v3.98364h-.96429Z" fill="#fff"/><path d="M39.00061,181.60747l-1.37646-2.02069,3.5152-.84808.08728-2.08234h3.07782c.2879-3.5802,1.04016-4.91986,1.44965-5.44.04962-.06317.09521-.11646.1333-.1579l-.1333-.39178-2.70984-7.95831-5.362,16.03033,5.33282-17.34692,2.739,7.36945.48383,1.30206c.84979-4.25012,2.81238-5.36151,2.81238-5.36151v-3.72388H36.97809l-5.80127,2.144v15.61682l1.87585,4.15808ZM38.356,162.91316h.76086v8.265H38.356Zm-4.19067,18.63965-.96747.318v-7.93658h.96747Zm.089-18.63965,2.34253,17.96246-.61377.236-2.13873-17.52478Zm-2.69616,14.974-.2052-.49585,2.1391-12.1629.17615.325-2.052,12.33376Z" fill="#fff"/><path d="M44.30444,207.363v-1.28931l-2.40417-2.78333,2.90137-1.34741v-3.3681l-8.81854,4.89343v-4.3703a11.05228,11.05228,0,0,1,9.771-7.58282l.01538-.00146v-2.78339l-.01538.006-13.93091,5.41058,3.83667,3.10828-2.9577,3.34082L24.32087,199.481.7027,199.60076v10.95941H0v1.64124H.84979L.7027,217.12206H0v1.22766H.7027l-.08545,7.67987H5.656l1.67029-.38275V212.43071s-.35229-4.33276,2.8432-4.36328c3.192-.08575,2.89966,5.10175,2.89966,5.10175H13.948s-.908-5.30688,2.84326-5.80621a2.988,2.988,0,0,1,3.16327,2.17126l-1.43463,1.34395-.0599,1.2616.7027.85156v4.27777h-.6428v1.11139l.64282-.03076v7.67987H32.34808S30.563,210.96709,44.30444,207.363Zm-42.427-4.63007H2.756v5.74457H1.87744Zm2.92871,20.13379H1.87744v-3.34082H4.80615Zm0-6.73975H1.87744v-3.34082H4.80615Zm1.75739-9.61206c-.84949.90619.58655.84808.58655.84808-1.55225.05811-2.78339,2.43463-2.78339,2.43463l.43945-9.34875,1.055.6156-.2052,5.45044c2.90137-2.87231,4.628-2.34564,4.628-2.34564A7.06464,7.06464,0,0,0,6.56354,206.51488Zm6.155-.26331-.7641.26331v-2.66711h.7641Zm9.11127-3.51868h.79169v4.25049h-.79169Zm-2.02069,3.782c-1.026-2.60547-5.5979-3.457-5.5979-3.457,5.27471.23248,6.32941,3.457,6.32941,3.457Zm3.07577,15.93828h-2.609v-2.92731h2.609Zm.17609-6.32623H20.13025v-3.34082H23.061Zm-.82074-7.64948-1.69958.67371,1.69958-1.347,2.57813,1.99347Zm6.945,15.99988H26.07861v-6.2439H26.46v-.96436h-.38135v-5.33453h.46851v-1.05638l-.46851-.05817c-.23425-2.722,1.43591-3.01587,1.43591-3.01587,1.37823.17755,1.67065,4.13043,1.67065,4.13043Zm1.08228-14.67975s.67517-1.11493,1.55573-.58826c.90625.58826,0-3.60065,0-3.60065l-2.638-2.55084s3.34082.87885,3.54425,2.55084v6.29858s-2.02113-2.78687-2.462-2.10968Z" fill="#fff"/><rect x="13.09814" y="214.01372" width="0.84979" height="12.01587" fill="#fff"/><polygon points="26.137 197.665 20.335 184.216 24.642 197.546 26.137 197.665" fill="#fff"/><path d="M16.234,197.108l.37964-19.7475.79126,19.77832,6.32941.37958L19.6911,182.72234l-2.66742-6.18225a1.26893,1.26893,0,0,0,.88062-1.20032,1.33683,1.33683,0,0,0-.88062-1.23468,1.404,1.404,0,0,0,.05988-.52661,1.7584,1.7584,0,0,0-.29236-.99481,8.58526,8.58526,0,0,0,.29236-2.37329c0-1.46332-.26331-2.63983-.55713-2.63983-.29242,0-.55566,1.17651-.55566,2.63983a6.66456,6.66456,0,0,0,.32147,2.37329,1.40775,1.40775,0,0,0-.32147.99481,3.5641,3.5641,0,0,0,.05811.58478,1.31158,1.31158,0,0,0-.70447,1.17651,1.24417,1.24417,0,0,0,.84979,1.20032L6.2422,197.108ZM9.6701,195.4973l4.748-12.60052S12.57184,194.96717,9.6701,195.4973Z" fill="#fff"/><path d="M27.45471,198.19524l4.36847,1.28577,2.66364-1.96259-3.89471-3.39893,1.02417-.58478-1.4342-1.28925,4.56976-2.93042-4.24872-10.20032v-2.01756l-2.13867-5.59753a1.30815,1.30815,0,0,0,1.02594-1.23114,1.3268,1.3268,0,0,0-.908-1.25806.98347.98347,0,0,0,.08551-.53015,1.78652,1.78652,0,0,0-.29242-1.02594,8.01589,8.01589,0,0,0,.29242-2.31488c0-1.46362-.26337-2.63629-.5249-2.63629-.32318,0-.58826,1.17267-.58826,2.63629a6.24074,6.24074,0,0,0,.32324,2.31488,1.43768,1.43768,0,0,0-.32324,1.02594,3.64779,3.64779,0,0,0,.05981.58826,1.33888,1.33888,0,0,0-.70239,1.2,1.25291,1.25291,0,0,0,1.171,1.262l-5.62659,15.08664Zm5.68506-8.29193-.937.37958-2.7851-12.129ZM28.15741,192.95V172.99417l.207-.29419L28.56784,192.95l.84979-.06165s-.35052,1.4668-3.28094.20868Zm-1.34528-2.0246-2.228-.70416,2.87061-12.86072Z" fill="#fff"/><path d="M45.06671,208.41936c-13.129,2.72559-11.86884,17.61023-11.86884,17.61023h4.89478C37.09613,210.56017,45.06671,208.41936,45.06671,208.41936Z" fill="#fff"/><path d="M109.2962,106.62584a15.19439,15.19439,0,0,0,.34869-2.22455l-1.49438-2.34564-2.34216-.23425-1.262-1.61072-2.19507.73181-2.49274-2.6944-3.66223,2.08057-1.75775-2.08057-2.93044,1.01147-1.05646.36462-2.4314-1.3761L84.4179,99.82932l-2.4329-.87847-2.34253,1.99164-3.45886-.87885-2.13873,1.992-1.465-.6156L70.85124,103.784h-1.055l-.84949,3.75116a10.71039,10.71039,0,0,0,.84949,2.43146l.58655-4.10162,1.23108.528.84955-1.90448,2.4024.67371,1.90265-2.34393,2.60931.9657,2.6073-2.34393,2.93042,1.49445L87.8749,101.44l3.10486,1.11316.52838-.29944,2.31348-1.31128,3.10648,2.22771,3.05017-1.7301,1.72662,2.34393,2.22632-.9657,1.99335,2.08057,1.73016-.49756.49579,2.22455Z" fill="#fff"/><path d="M107.3028,110.758a10.165,10.165,0,0,0,.82043-1.23077l-.82043-.55566-.26678-1.99207-1.87054.87714-1.23425-2.373-2.57855.90936-1.98993-1.9917-2.57855,1.08234-2.46368-1.58167-2.81238,1.33148-.52838.25018L87.87491,104.049l-2.431,2.08093-2.98859-1.64148-2.69794,2.63629-2.34247-1.64117-2.54907,2.02246-1.55261-.99512-.35229,2.22455H71.23254l-.52844,2.845a17.14554,17.14554,0,0,0,2.08063,2.34216l-.58612-1.9353.64423.44122-.64423-2.22626,1.84631.87885V108.356l2.84155.96783,1.113-2.081,2.87231,1.63977,1.46545-2.25671,3.34076,1.37787L88.10907,106.13l2.87061,1.61035.52838-.326,2.08093-1.2843,2.28583,1.72662,2.7525-1.72662,1.23114,2.75256,2.72522-1.63977v2.48962l2.95782-.84985-.73181,2.28577Z" fill="#fff"/><path d="M104.28345,112.19426l-.70453-.38129.11627-1.7287-1.9903.23425-.2052-1.436-2.60889.96783-.73187-1.49445-3.22113.52661-1.87708-1.14221-1.55261.83112-.96783.51807-2.373-1.23291-2.19688,1.67059-2.34418-1.31659-1.75922,1.9318-2.81238-.99652-.58655,1.554-2.16638-.43945-.118,1.72693H74.04492l.43951,1.11493-1.05505.08887a6.62648,6.62648,0,0,1,.58649,1.67029,6.8761,6.8761,0,0,0,.84991.58472v-1.17126l6.09332-3.575,10.02063-1.11456.52838.06757,11.16461,1.42828,1.98987,1.845Z" fill="#fff"/><polygon points="103.579 116.062 101.059 113.922 92.007 111.987 91.508 112.056 81.517 113.425 76.712 115.885 76.712 117.087 81.458 115.065 91.508 113.964 91.889 113.922 100.915 115.446 103.579 117.087 103.579 116.062" fill="#fff"/><polygon points="91.713 115.065 91.508 115.084 82.074 115.974 76.712 118.845 76.712 122.623 82.366 120.751 91.508 119.718 91.713 119.695 100.327 121.16 102.936 122.623 102.936 118.845 100.443 116.178 91.713 115.065" fill="#fff"/><polygon points="109.265 181.58 106.629 179.44 91.83 178.355 91.508 178.378 76.623 179.44 69.854 181.58 71.349 182.544 77.151 180.202 91.332 179.44 91.508 179.449 105.661 180.202 108.123 182.049 109.265 181.58" fill="#fff"/><polygon points="91.508 182.544 77.647 182.544 71.964 184.538 71.349 186.617 77.883 185.27 91.508 184.858 102.084 184.538 103.931 184.538 106.273 183.57 103.435 182.544 91.508 182.544" fill="#fff"/><polygon points="108.588 151.431 108.588 152.627 111.987 152.627 109.265 148.466 108.588 151.431" fill="#fff"/><path d="M108.5882,156.55651c2.90308-.38306,2.55121,8.38129,2.55121,8.38129h-1.874v6.94138h7.44421l.29059-6.94141h-2.49274l-.70093-6.47992c1.57953-5.26947,4.57147,0,4.57147,0l3.07446-2.48926-1.23126-2.40063H118.378l-2.60889-4.33942L113.485,150.87c-2.14044-3.95636-4.2196-3.37164-4.2196-3.37164,2.84143,1.43951,4.13074,6.391,4.13074,6.391h-4.808Z" fill="#fff"/><path d="M121.45251,151.431h.70416l.82068.75873a2.72635,2.72635,0,0,1,1.69965-1.64111v-5.21484s-1.11487-1.40515-5.1875-1.28894v6.12067h1.498Z" fill="#fff"/><path d="M123.41852,142.465a7.85979,7.85979,0,0,0-3.929-1.20349V142.465s3.34082.05463,3.929.73181Z" fill="#fff"/><path d="M91.50812,18.11517v.03156a9.57832,9.57832,0,0,0-1.34283,1.42621,9.72672,9.72672,0,0,1,1.37781-.92041v-.01666c5.052-2.75775,9.80957.93707,9.80957.93707C97.2597,14.46788,93.46228,16.423,91.50812,18.11517Z" fill="#fff"/><path d="M91.50812,21.29125V21.317a6.61852,6.61852,0,0,0-.60962.484c.21655-.10754.43048-.19623.64459-.28729v-.01331a11.69832,11.69832,0,0,1,8.695-.16785A7.0867,7.0867,0,0,0,91.50812,21.29125Z" fill="#fff"/><path d="M91.50812,22.979v.01617c-.38495.1731-.60962.29993-.60962.29993.21869-.07581.43085-.13586.64459-.19977V23.0861a13.06628,13.06628,0,0,1,8.695.209C96.93915,20.96434,93.0235,22.30431,91.50812,22.979Z" fill="#fff"/><path d="M99.50635,29.4774V25.14183a6.88049,6.88049,0,0,0-7.94012,0V29.4774C94.43854,25.75566,99.50635,29.4774,99.50635,29.4774Z" fill="#fff"/><path d="M91.50812,29.87889a9.64785,9.64785,0,0,0-1.34283.91687v2.373a5.63555,5.63555,0,0,1,1.37781-1.35022v-.02295c1.58984-1.09955,4.50806-1.96643,8.695,1.37317v-2.373s-4.00055-3.58392-8.73-.93848Z" fill="#fff"/><path d="M107.00867,113.92266l-2.34607.93878-.73138,4.42139v7.03381l2.08228-3.01587,2.10974,3.01587-2.10974-1.52173-2.08228,1.52173v3.25359l.73138,5.33429.35583.02728-.35583-7.15015h2.72565v7.38263l.735.58826,6.94495-.147,3.30988,3.60413V116.70775l-2.756-2.7851Zm4.33594,4.65741-6.682-.70276v-.76093l6.682.76093Zm4.18854,15.00469h-3.22107v-2.93042h3.22107Zm0-4.31036h-3.22107v-2.95776h3.22107Zm0-4.47949h-3.22107v-3.02112h3.22107Zm0-4.69135h-3.22107v-2.98718h3.22107Z" fill="#fff"/><path d="M113.80658,149.22856l1.8736-1.61035,1.20032,1.61035,1.49756-2.226v-3.80579l-2.69788-3.98718h-6.41473a15.6498,15.6498,0,0,1,.37946,4.83521l1.49451.6156-.90973,1.583C112.37024,145.539,113.80658,149.22856,113.80658,149.22856Z" fill="#fff"/><path d="M127.72369,201.12255l-23.58734,2.02423s-2.9588-1.63757-12.62823-1.47491c-1.22906.02069-2.56067.06891-4.01453.15485-12.89124.73181-13.47772-.37958-18.988,2.66711l-22.73608-.90936h22.736s3.75116-3.25183,18.988-2.609c0,0,1.70074-.04938,4.01453-.05695,4.76581-.0155,12.14618.14734,12.71686,1.29126l23.03027-1.9353V183.7788L103.319,185.62548l1.10785.99164H75.89172l-8.38129,2.11316,3.04669,1.90448v5.12592l-1.17133,1.69965-23.63171.02649-.68738.00079.68738,1.09009v4.57459l-2.12506.75714,2.12506,2.2099v4.85706c-4.08746,2.29059-4.67426,8.25537-4.67426,8.25537v6.79785h3.1955l.79138-10.60718c-1.31976,1.28925-2.16956,2.22626-2.16956,2.22626,1.484-3.18536,2.36639-4.07788,2.85693-3.62592.88788.81818.48535,6.06116,0,10.22827-.07263.6228-.14685,1.22272-.21887,1.77856h5.53625V213.901H53.152v12.1286h1.90625V213.665l-1.49579-2.87231-2.95959,2.10962,2.95959-3.05011,2.13873,3.66571v12.51166h2.34418a5.29166,5.29166,0,0,1,2.98859-3.72351l.147-14.20813s6.62177,2.25708,7.32452,4.30511v13.62653h58.28113l-.64642-20.74585Zm-7.47156-12.977s2.2876-.61908,2.05151,6.121h-3.86743s-.84771-6.06288,1.81593-6.121Zm-9.2016,0s2.28748-1.11493,1.90442,6.85248h-3.457s-.5848-6.65085,1.55259-6.85246Zm-10.48749.229s1.64124-.3761,1.69934,2.87579a30.0361,30.0361,0,0,1,0,3.74768h-3.2246s-.29413-6.3875,1.52522-6.62346Zm-6.5058,1.99371s0-2.19543,1.11664-2.22272c1.10785-.089,1.78149.43768,1.78149,2.60229v4.36639H94.05725Zm-8.90753.17792s.17609-2.60931,2.1969-2.40063c1.93384.14355,2.43317,1.16949,2.46222,2.77985.05811,1.64148,0,3.92908,0,3.92908l-4.65912.25977Zm-6.68164.20166s.17792-2.54419,2.16949-2.60229c1.99207-.14709,2.13916,2.13733,2.13916,2.83832v4.13037H78.46808Zm-6.21136,0s0-2.01758,1.17267-2.01758c1.173.05817,1.34735,1.34387,1.34735,2.72522v3.57336H73.898l-1.64124.937Z" fill="#fff"/><polygon points="111.987 181.929 107.303 183.779 120.221 182.838 111.987 181.929" fill="#fff"/><polygon points="111.139 180.992 131.092 180.438 132.62 178.739 113.102 178.739 111.139 180.992" fill="#fff"/><polygon points="128.045 183.163 132.002 186.617 132.002 180.992 117.759 181.433 122.683 182.838 128.045 183.163" fill="#fff"/><polygon points="109.265 172.382 109.265 172.936 120.987 172.936 116.59 172.382 109.265 172.382" fill="#fff"/><polygon points="132.62 209.325 132.412 191.455 128.134 187.937 128.134 199.218 129.392 198.66 129.392 200.127 127.166 207.25 127.724 226.029 132.911 223.041 132.911 215.713 131.181 215.771 132.62 209.325" fill="#fff"/><path d="M120.22125,134.28575c0,2.48926,3.25537,5.4505,3.25537,5.4505a22.28356,22.28356,0,0,1,13.78558-1.58258,21.11,21.11,0,0,1,3.82117,1.056A9.83772,9.83772,0,0,0,144.455,133.937c.96777-3.72382-2.137-7.67847-5.45044-9.14209a9.47431,9.47431,0,0,1-1.74237-.9978c-1.87872-1.37579-2.43872-3.09-2.97662-4.952-.11279-.5249-.29071-1.67059-.43774-3.07751a2.14985,2.14985,0,0,0,1.026-1.845,2.17207,2.17207,0,0,0-1.49451-2.02069c-.44116-4.71906-.90613-9.93353-.90613-9.93353-.06128,4.01453-.26654,7.29541-.52985,9.96259a2.19043,2.19043,0,0,0-1.31653,1.99164,2.14648,2.14648,0,0,0,.87885,1.73047,30.63888,30.63888,0,0,1-1.11487,5.03833,109.685,109.685,0,0,1,6.8714,13.24329,12.96975,12.96975,0,0,1,.74719,2.52234s-.28357-.29865-.74719-.87042a38.70535,38.70535,0,0,1-7.08014-14.39764,7.39038,7.39038,0,0,1-1.16913,2.28442c1.3197,3.95776,4.25012,12.27911,6.53455,13.65735-1.2619-.67371-8.61725-4.89337-7.82379-12.66083-.937.59-1.69971,1.11487-2.43115,1.61243.84772,2.96124,2.9613,8.23419,7.44073,11.10651,0,0-9.28387-2.28436-8.67187-10.10962-.53.46991-.96783.93671-1.37817,1.34534.26337,6.21344,6.06641,8.76428,6.06641,8.76428-6.00824-1.46362-6.77057-5.47815-6.50409-8.20514a7.93223,7.93223,0,0,0-1.40515,2.46021,6.63015,6.63015,0,0,0,4.77325,6.12451S121.131,138.037,120.22125,134.28575Zm17.041-9.15015c2.24329,1.11823,8.54779,5.05206,4.52576,12.43286,0,0,1.735-8.42761-4.52576-12.34436Zm0,3.80389a20.41568,20.41568,0,0,0-4.85028-6.31592,19.81349,19.81349,0,0,1,4.85028,4.23767,13.46873,13.46873,0,0,1,3.23639,10.70721,39.48433,39.48433,0,0,0-3.23643-8.629Z" fill="#fff"/><path d="M137.26221,140.78673a12.33861,12.33861,0,0,1,3.53058,1.58929v-1.40863a15.14652,15.14652,0,0,0-3.53058-1.2796,20.34552,20.34552,0,0,0-13.34784,1.36853v1.3197S130.78613,139.00145,137.26221,140.78673Z" fill="#fff"/><path d="M137.26221,142.25109a9.79052,9.79052,0,0,1,2.41571.94574v-.8208a7.62278,7.62278,0,0,0-2.41571-1.03961c-2.3501-.64325-6.46729-.98761-12.5852,1.15588v.70453S131.76581,140.84838,137.26221,142.25109Z" fill="#fff"/><path d="M139.326,143.63451a17.58462,17.58462,0,0,0-2.06378-.58649c-2.701-.61566-7.60254-1.21124-11.94238,1.055v.8512s3.3183-2.881,11.94238-1.19971c.65784.12823,1.34314.28,2.06378.46472Z" fill="#fff"/><path d="M137.26221,152.6809c.67523.13068,1.37952.28613,2.12189.47668v-.58826a17.555,17.555,0,0,0-2.12189-.60242c-2.69867-.6095-7.52551-1.17426-11.82288,1.07446v.848S128.693,151.02226,137.26221,152.6809Z" fill="#fff"/><path d="M125.88049,144.95416V150.87a70.346,70.346,0,0,1,11.38171-.23212c.70575.05707,1.39923.13257,2.06378.23212v-5.91583a18.30173,18.30173,0,0,0-2.06378-.47638A25.65217,25.65217,0,0,0,125.88049,144.95416Zm5.3584,4.62659h-.84808v-4.62659h.84808Zm5.74451.26678h-.76251v-4.89337h.76251Z" fill="#fff"/><path d="M124.79327,161.125a7.20824,7.20824,0,0,0-2.78333-4.1889l-3.63194,2.66708-.11621,2.69794a3.458,3.458,0,0,1,2.66748.90619,3.56269,3.56269,0,0,0-2.69824-.11627l-.29376,5.53625a5.15051,5.15051,0,0,1,2.28394-1.40546s3.54608,1.08051,4.16168,4.07257c0,0-2.52008-2.99207-4.16168-2.84149a13.32146,13.32146,0,0,0-2.28394.6156l-.17792,3.1048,6.155.76263h5.24535v-4.21967h2.021v4.21967h15.121l-.089-1.43634a8.36771,8.36771,0,0,0-2.02106-2.1405,2.95261,2.95261,0,0,0-1.61035.96753c-.325-1.17267-2.60931-2.48926-2.60931-2.48926a3.42252,3.42252,0,0,0-2.70984,1.75781v-1.2829a8.23715,8.23715,0,0,1,2.41571-2.35211,10.97364,10.97364,0,0,1,2.95807,3.31s.20837.79309.26648,0c.02771-.78992,1.40552-.81726,1.40552-.81726a6.25226,6.25226,0,0,1,1.874,2.48926l-.49579-8.26465a16.41176,16.41176,0,0,0-1.78857-.96429c-2.81421.32141-3.92554,4.24695-3.92554,4.24695a8.05892,8.05892,0,0,0-2.70984-3.694,3.62788,3.62788,0,0,0-1.65662-.69647c-2.11-.236-4.09991,2.28406-5.15668,3.89471.44116-.08893.73181-.147.73181-.147a6.31012,6.31012,0,0,1,5.07092,5.42316c-2.02075-4.19238-5.04-4.33948-5.04-4.33948a3.20075,3.20075,0,0,0-1.40558.14709.95544.95544,0,0,1-.147.202.6097.6097,0,0,0,.08539-.202c-3.01581.90619-5.41956,5.01312-5.41956,5.01312a7.7231,7.7231,0,0,1,5.21436-5.8031c-1.75739-3.60376-4.04175-3.72351-4.04175-3.72351-3.13562-.35223-5.94983,5.18719-5.94983,5.18719A7.381,7.381,0,0,1,124.79327,161.125Z" fill="#fff"/><path d="M137.26221,183.85436a2.06546,2.06546,0,0,1,.48035.7417,2.486,2.486,0,0,0-.48035-1.33734,2.656,2.656,0,0,0-1.91986-1.00482s-2.34253.58472-2.43152,2.34216c0,.08893,1.78864-1.90448,2.2536-1.75745A5.09246,5.09246,0,0,1,137.26221,183.85436Z" fill="#fff"/><path d="M132.91083,186.61711h14.47461v-2.02106l-1.72656-1.4325v2.25323l-3.72388.35229c-1.4364-1.90491-3.07745.147-3.07745.147l-1.59534-.17468-.27881-.03052s-.70441-1.173-1.64105-1.11487c-.96783.08893-2.43152,1.64148-2.43152,1.64148Z" fill="#fff"/><polygon points="114.743 177.097 114.743 178.065 137.262 178.065 144.076 178.065 144.076 177.097 137.262 177.097 114.743 177.097" fill="#fff"/><polygon points="137.262 189.462 147.912 189.462 147.912 188.145 137.262 188.145 131.799 188.145 128.134 184.893 131.653 189.462 137.262 189.462" fill="#fff"/><polygon points="137.262 214.388 156.676 213.812 151.985 209.325 137.262 209.325 133.67 209.325 132.002 214.544 137.262 214.388" fill="#fff"/><path d="M133.66992,191.3358v16.64587H147.912V191.3358Zm10.22766,3.89825c3.25183.147,2.40417,6.27118,2.40417,6.27118l-4.74634-.26331S140.70392,195.14507,143.89758,195.23406Zm-4.27777,6.27118h-4.6571s-1.01538-6.41718,2.2995-6.2442c.01471.00073.02783-.00073.04272.00031C140.61841,195.4973,139.61981,201.50524,139.61981,201.50524Z" fill="#fff"/><polygon points="133.964 215.713 133.964 222.689 137.262 222.689 154.83 222.689 154.83 215.012 137.262 215.602 133.964 215.713" fill="#fff"/><path d="M144.0174,160.54016a6.48062,6.48062,0,0,1,1.64148,1.46716l-.23608-3.5495-4.63-3.92206a29.12626,29.12626,0,0,0-3.53058-.67413c-3.268-.43927-8.259-.63922-12.5852,1.16992l-1.69965,1.20349c1.73053,1.963,2.05188,3.457,2.05188,4.33594a7.42145,7.42145,0,0,1,5.74463-5.62488c4.15808,1.08063,4.44867,5.41968,4.44867,5.41968-1.78149-4.19238-4.39056-4.33905-4.39056-4.33905-2.72522-.31836-5.27643,3.98328-5.80273,4.95111v.089a1.26741,1.26741,0,0,1,.4101-.089A5.99607,5.99607,0,0,1,129.7444,165.7a2.21911,2.21911,0,0,1,.236-.11938,7.16877,7.16877,0,0,1,5.5979-5.04047c.08856,0,.23566.06165.35193.06165a6.04435,6.04435,0,0,1,1.332-3.83466,9.25365,9.25365,0,0,1,2.12189-2.02618,7.524,7.524,0,0,1,3.75433,4.2193c-2.08234-2.60895-3.81244-2.81415-3.81244-2.81415a5.33383,5.33383,0,0,0-2.06378,1.6532,5.15031,5.15031,0,0,0-1.01056,2.9187.24821.24821,0,0,0,.17438.08545,2.43121,2.43121,0,0,1,.83618-.58289c1.7995-.7605,4.02985.96594,4.02985.96594a8.38112,8.38112,0,0,0-4.02985-.39813,5.02068,5.02068,0,0,0-.5694.13135,5.40883,5.40883,0,0,1,.5694.32916,6.71007,6.71007,0,0,1,2.70978,4.71127A5.55833,5.55833,0,0,1,144.0174,160.54016Z" fill="#fff"/><polygon points="147.385 181.929 145.659 180.438 137.262 180.605 132.412 180.701 132.412 181.929 137.262 181.929 145.659 181.929 147.385 183.365 147.385 181.929" fill="#fff"/><path d="M143.28552,184.59606s1.2276-2.02075-2.845-2.05157C140.44049,182.54448,142.96057,183.25217,143.28552,184.59606Z" fill="#fff"/><polygon points="137.262 173.636 109.676 173.636 111.785 176.13 137.262 176.215 146.302 176.246 148.264 177.415 148.264 175.634 146.302 173.636 137.262 173.636" fill="#fff"/><path d="M156.49847,117.41051l3.10486-.08893a40.91511,40.91511,0,0,0,9.84448-24.70041c-.848-.84949-1.61072-1.64117-2.28394-2.402a4.36545,4.36545,0,0,1-.49591-.73358c-.5882,4.68817-2.17163,10.46185-5.91931,14.41644C160.74866,103.902,155.96838,110.40569,156.49847,117.41051Z" fill="#fff"/><path d="M147.0332,120.86931l.44116-.26508c-3.48785-5.011-8.46979-16.76038,10.90137-26.87,0,0-14.68329,12.98016-8.675,25.43579l2.46191-1.527c-.49927-3.3681-.236-8.58258,3.63495-14.91229,5.56317-8.99646,8.6684-10.959,9.84448-15.50189a67.96275,67.96275,0,0,1-2.52-12.7442,2.79665,2.79665,0,0,0,1.6377-2.60931,2.85065,2.85065,0,0,0-2.28406-2.78333c-.6156-6.47644-.87891-11.838-.87891-11.838s-.05811,5.42145-.70453,11.95422a2.84242,2.84242,0,0,0-.64606,5.01141c-.81726,5.71552-2.13727,11.42755-4.33588,14.76831-5.42,8.26331-14.56006,12.57019-15.11749,20.9787C140.23535,118.43651,147.0332,120.86931,147.0332,120.86931Zm13.97522-39.20587a9.4022,9.4022,0,0,1-.87848,9.34558c1.49762-1.963.61871-6.88507.61871-6.88507-.41345,1.75745-3.95947,6.88507-3.95947,6.88507A40.00665,40.00665,0,0,0,161.00842,81.66344Z" fill="#fff"/><path d="M170.38489,117.84825l2.69794.38306,1.7301,2.19543c1.72693-.78992,5.86115-5.36188,5.91925-11.48431a9.75772,9.75772,0,0,0-.29407-2.228A16.58976,16.58976,0,0,1,170.38489,117.84825Z" fill="#fff"/><path d="M164.7597,117.08733h.44116l2.98853.44122c2.43146-2.66711,7.82031-8.93835,10.19366-15.14972a36.45276,36.45276,0,0,0-3.89478-4.80621C173.9035,102.23174,171.879,111.02306,164.7597,117.08733Z" fill="#fff"/><polygon points="174.488 121.541 172.204 118.845 164.233 117.528 152.569 118.58 147.385 121.541 147.943 122.451 153.216 119.519 164.117 118.289 171.91 119.989 174.488 122.451 174.488 121.541" fill="#fff"/><polygon points="173.114 122.451 172.351 121.454 164.291 119.989 153.568 120.427 149.584 122.451 149.584 123.738 153.742 121.719 164.117 120.869 171.999 122.304 173.114 123.738 173.114 122.451" fill="#fff"/><polygon points="164.233 123.738 153.862 124.795 149.584 126.169 149.584 127.373 153.742 125.614 164.059 124.795 171.619 126.082 172.262 127.373 172.262 126.082 171.619 125.232 164.233 123.738" fill="#fff"/><path d="M144.92352,150.87l7.35535-2.63312,13.21613-1.08728,10.57642,2.52008c.11621-6.62-3.80939-7.64594-3.80939-7.64594V129.2163l-1.46356-1.55225-7.14978-1.11139-9.96466.82037-4.09961,1.40553v12.04529h-.06165a8.86458,8.86458,0,0,1,1.84637,2.57465c-1.49091-1.31653-3.42621-.87885-4.71552-.34875C144.77649,146.0656,144.92352,150.87,144.92352,150.87Zm29.56476-3.92554c-5.97742-4.74634-8.1452-.8208-8.1452-.8208C168.162,140.58782,174.48828,146.94451,174.48828,146.94451Zm-19.92542-12.04,3.72382,3.83661c.03088,0,.08905,0,.08905-.03082v-7.82349h.99164v7.502c4.428-1.17267,7.974,1.99377,7.974,1.99377l-3.28271-6.0387h.43768l2.48961,2.87225V130.8868h.90932v7.41656c.11975-1.52838,3.0163-3.95947,3.0163-3.95947-2.4588,2.43109-2.63318,7.15326-2.63318,7.15326a3.60132,3.60132,0,0,0-3.84015,1.69965c-6.0625-4.27783-10.313-.73181-10.313-.73181l3.01617-3.05023Zm-.43768,11.33893c5.12592-8.0871,9.202,0,9.202,0C158.4884,139.58917,153.95087,146.56493,154.12518,146.24344Zm-3.95636-7.50232v-2.78685l1.20032,1.17651V131.444h.88239v6.593l.29413.26642-.96783,1.7851Zm.44116,8.75726c-1.672-3.80579-4.30823,1.9353-4.30823,1.9353,2.63625-8.7296,4.30824-1.93529,4.30824-1.93529Z" fill="#fff"/><polygon points="165.611 152.627 176.66 155.353 176.66 152.627 165.642 149.228 152.337 149.7 141.935 153.568 147.385 157.466 147.385 172.936 149.584 176.393 149.584 180.992 176.66 180.992 176.66 172.522 170.238 159.692 166.285 178.355 163.707 178.355 158.023 157.61 154.563 165.96 158.023 156.146 164.438 175.398 164.438 159.22 166.254 159.22 166.254 172.351 170.122 157.61 176.66 170.679 176.66 157.408 165.348 155.12 153.011 155.589 153.011 153.889 165.611 152.627" fill="#fff"/><rect x="149.58441" y="183.16356" width="33.43188" height="4.98199" fill="#fff"/><path d="M149.58441,207.363h3.04315l7.88513,7.18091-3.83661.46851v7.67639H183.0163V189.46208H149.58441Zm23.84717-10.46014h5.27606V204.901h-5.27606Zm-10.95593,0h5.27295V204.901h-5.27295Zm-11.10651,0h5.30695V204.901h-5.30695Z" fill="#fff"/></g></g></g></svg>