<svg xmlns="http://www.w3.org/2000/svg" xmlns:xlink="http://www.w3.org/1999/xlink" width="17" height="19" viewBox="0 0 17 19"><defs><path id="a1yla" d="M1306 426.37c0 .412-.04.814-.117 1.208 0 0-.014.072-.044.2a6.02 6.02 0 0 1-.438 1.263c-.655 1.52-2.164 4.051-5.548 6.802a.575.575 0 0 1-.723 0c-3.384-2.754-4.893-5.285-5.545-6.798a6.3 6.3 0 0 1-.438-1.265 6.281 6.281 0 0 1-.13-2.03c.31-3.16 3.003-5.636 6.244-5.747 3.699-.128 6.739 2.77 6.739 6.366zm-3.348.075c0-1.71-1.415-3.096-3.16-3.096-1.746 0-3.161 1.386-3.161 3.096 0 1.709 1.415 3.094 3.16 3.094 1.746 0 3.161-1.385 3.161-3.094z"/><mask id="a1ylc" width="2" height="2" x="-1" y="-1"><path fill="#fff" d="M1293 420h13v16h-13z"/><use xlink:href="#a1yla"/></mask><filter id="a1ylb" width="37" height="40" x="1281" y="408" filterUnits="userSpaceOnUse"><feOffset in="SourceGraphic" result="FeOffset1023Out"/><feGaussianBlur in="FeOffset1023Out" result="FeGaussianBlur1024Out" stdDeviation="0.8 0.8"/></filter></defs><g><g transform="translate(-1291 -418)"><g filter="url(#a1ylb)"><use fill="none" stroke-opacity=".32" stroke-width="0" mask="url(&quot;#a1ylc&quot;)" xlink:href="#a1yla"/><use fill="#f15a24" fill-opacity=".32" xlink:href="#a1yla"/></g><g filter="url(#a1ylb)"><use fill="none" stroke-opacity=".32" stroke-width="0" mask="url(&quot;#a1ylc&quot;)" xlink:href="#a1yla"/><use fill="#f15a24" fill-opacity=".32" xlink:href="#a1yla"/></g><use fill="#f15a24" xlink:href="#a1yla"/></g></g></svg>