<?xml version="1.0" encoding="utf-8"?>
<!-- Generator: Adobe Illustrator 21.0.0, SVG Export Plug-In . SVG Version: 6.00 Build 0)  -->
<svg version="1.1" id="Capa_1" xmlns="http://www.w3.org/2000/svg" xmlns:xlink="http://www.w3.org/1999/xlink" x="0px" y="0px"
	 viewBox="0 0 396.4 512" enable-background="new 0 0 396.4 512" xml:space="preserve">
<g>
	<path fill="#FFFFFF" d="M210.2,0C70.5,0,0,100.2,0,183.7c0,50.6,19.1,95.6,60.2,112.3c6.7,2.8,12.8,0.1,14.7-7.4
		c1.4-5.2,4.6-18.2,6-23.6c2-7.4,1.2-10-4.2-16.4c-11.8-14-19.4-32.1-19.4-57.7c0-74.3,55.6-140.9,144.8-140.9
		c79,0,122.4,48.3,122.4,112.7c0,84.8-37.5,156.4-93.2,156.4c-30.8,0-53.8-25.4-46.4-56.7c8.8-37.3,26-77.5,26-104.4
		c0-24.1-12.9-44.2-39.7-44.2c-31.5,0-56.7,32.5-56.7,76.1c0,27.8,9.4,46.5,9.4,46.5S91.6,373.1,86,397
		c-11.2,47.6-1.7,105.9-0.9,111.7c0.5,3.5,4.9,4.3,7,1.7c2.9-3.8,40.4-50,53.1-96.2c3.6-13.1,20.7-80.8,20.7-80.8
		c10.2,19.5,40.1,36.7,71.8,36.7c94.5,0,158.7-86.2,158.7-201.6C396.4,81.2,322.5,0,210.2,0z"/>
</g>
</svg>
