<svg version="1.1" id="Слой_1" xmlns="http://www.w3.org/2000/svg" xmlns:xlink="http://www.w3.org/1999/xlink" x="0px" y="0px"
	 viewBox="0 0 883.9 746.8" enable-background="new 0 0 883.9 746.8" xml:space="preserve">
<path id="XMLID_24_" fill="#FFFFFF" d="M743.3,196.2v140.5h-55.6V196.2H547.1v-55.7h140.6V0h55.6v140.5h140.6v55.7H743.3
	L743.3,196.2z M430.8,37.3h-73.3c48.7,18.7,74.6,75.5,74.6,133.7c0,48.7-27.2,90.8-65.3,120.8c-37.3,29-44.5,41.2-44.5,66
	c0,21.3,40.1,57.2,60.9,72c61.2,43.2,80.9,83.2,80.9,150.3c0,83.6-80.9,166.7-227.3,166.7C108.4,746.8,0,694.4,0,610.9
	c0-84.8,98.9-166.7,227.3-166.7c14,0,26.8-0.4,40.1-0.4c-17.6-17.1-31.5-38-31.5-63.8c0-15.3,4.9-30.2,11.8-43.2
	c-7.1,0.5-14.1,0.6-21.4,0.6c-105.6,0-176.2-75.1-176.2-168.2C50.1,78.5,147.7,0,251.4,0h231.2L430.8,37.3L430.8,37.3z M251.8,465.8
	C163,464.9,83.5,520,83.5,586.1c0,67.6,64.1,123.6,152.8,123.6c124.8,0,168.2-52.7,168.2-120.2c0-8.1-0.9-16.2-2.7-23.7
	c-9.8-38.3-44.4-57.2-92.6-90.8C291.8,469.3,272.6,466,251.8,465.8L251.8,465.8z M348.9,175.4C338.6,97.2,282,34.5,222.5,32.8
	c-59.6-1.9-99.5,57.9-89.3,136.1c10.4,78.5,67,143.2,126.6,145C319.2,315.6,359.3,253.6,348.9,175.4L348.9,175.4z"/>
</svg>
