<svg version="1.1" id="Слой_1" xmlns="http://www.w3.org/2000/svg" xmlns:xlink="http://www.w3.org/1999/xlink" x="0px" y="0px"
	 viewBox="0 0 1482.8 1205.2" enable-background="new 0 0 1482.8 1205.2" xml:space="preserve">
<path id="XMLID_23_" fill="#FFFFFF" d="M1331,300.1c0.5,13.1,0.8,26.4,0.8,39.4c0,402.1-306,865.6-865.5,865.6
	c-171.9,0-331.7-50.5-466.3-136.7c23.6,2.8,47.8,4.4,72.4,4.4c142.7,0,273.7-48.7,377.9-130.3c-133.1-2.4-245.6-90.4-284.2-211.4
	c18.6,3.7,37.5,5.6,57.3,5.6c27.7,0,54.5-3.6,80-10.6C164.2,698,59.5,575.2,59.5,427.7c0-1.2,0-2.5,0-3.9
	c41,22.9,87.8,36.6,137.7,38.1C115.7,407.3,61.9,314.2,61.9,208.7c0-55.7,15.1-108.1,41.3-152.9c150,184,374.2,305.2,627.1,317.8
	c-5.3-22.1-7.9-45.3-7.9-69.2C722.4,136.4,858.5,0,1026.5,0c87.6,0,166.5,37.1,222.1,96.2c69.3-13.7,134.3-39,193.1-73.9
	c-22.5,71.1-70.8,130.7-133.7,168.2c61.7-7.3,120.3-23.7,174.8-47.9C1442,203.8,1390.4,257.3,1331,300.1L1331,300.1z"/>
</svg>
