<?xml version="1.0" encoding="utf-8"?>
<!-- Generator: Adobe Illustrator 21.0.0, SVG Export Plug-In . SVG Version: 6.00 Build 0)  -->
<svg version="1.1" id="Capa_1" xmlns="http://www.w3.org/2000/svg" xmlns:xlink="http://www.w3.org/1999/xlink" x="0px" y="0px"
	 viewBox="0 0 307.4 512" enable-background="new 0 0 307.4 512" xml:space="preserve">
<g>
	<g>
		<path fill="#FFFFFF" d="M128.5,360.6c-39.7-4.1-75.5-13.9-106.1-37.9c-3.8-3-7.7-5.9-11.2-9.2c-13.4-12.9-14.8-27.6-4.2-42.8
			c9.1-13,24.3-16.5,40.2-9c3.1,1.4,6,3.3,8.8,5.2c57.1,39.2,135.5,40.3,192.9,1.8c5.7-4.4,11.7-7.9,18.8-9.7
			c13.7-3.5,26.4,1.5,33.8,13.5c8.4,13.7,8.3,27-2.1,37.6c-15.9,16.3-34.9,28-56.1,36.3c-20,7.8-42,11.7-63.7,14.3
			c3.3,3.6,4.8,5.3,6.9,7.4c29.5,29.6,59.1,59.1,88.5,88.8c10,10.1,12.1,22.7,6.6,34.5c-6,12.9-19.5,21.3-32.7,20.4
			c-8.4-0.6-14.9-4.8-20.7-10.6c-22.2-22.4-44.9-44.4-66.7-67.2c-6.3-6.6-9.4-5.4-15,0.4c-22.4,23-45.1,45.7-68,68.3
			c-10.3,10.1-22.5,12-34.4,6.2c-12.7-6.1-20.7-19.1-20.1-32.1c0.4-8.8,4.8-15.5,10.8-21.5c29.2-29.1,58.3-58.3,87.4-87.5
			C123.9,365.7,125.7,363.6,128.5,360.6z"/>
		<path fill="#FFFFFF" d="M152.7,259.2c-70.8-0.2-128.9-58.9-128.5-129.9C24.6,57.6,82.7-0.2,154.3,0
			c71.7,0.2,129.2,58.8,128.8,131.3C282.7,202,224.2,259.4,152.7,259.2z M217.1,129.5c-0.1-35.2-28.2-63.2-63.3-63.3
			c-35.4,0-63.7,28.5-63.5,64c0.3,35.1,28.5,62.9,63.8,62.8C189.2,192.9,217.2,164.7,217.1,129.5z"/>
	</g>
</g>
</svg>
