<svg version="1.1" id="Слой_2" xmlns="http://www.w3.org/2000/svg" xmlns:xlink="http://www.w3.org/1999/xlink" x="0px" y="0px"
	 viewBox="0 0 1360.6 776.4" enable-background="new 0 0 1360.6 776.4" xml:space="preserve">
<g id="XMLID_21_">
	<g id="XMLID_33_">
		<path id="XMLID_35_" fill="#FFFFFF" d="M1353.5,701.1c-1.7-3.6-3.2-6.5-4.6-8.9c-23.6-42.5-68.7-94.7-135.3-156.5l-1.4-1.4
			l-0.7-0.7l-0.7-0.7h-0.7c-30.2-28.8-49.4-48.2-57.4-58.1c-14.7-18.9-18-38-9.9-57.4c5.7-14.7,26.9-45.6,63.8-92.8
			c19.4-25,34.7-45.1,46-60.2c81.7-108.6,117.1-178.1,106.3-208.3l-4.2-7.1c-2.8-4.2-10.1-8.2-21.9-11.7
			c-11.8-3.6-26.9-4.2-45.3-1.8L1083.2,37c-3.3-1.1-8-1.1-14.1,0.4c-6.2,1.4-9.2,2.1-9.2,2.1l-3.5,1.8l-2.8,2.1
			c-2.4,1.4-5,3.9-7.8,7.4c-2.8,3.5-5.2,7.7-7,12.4c-22.2,57.1-47.5,110.3-75.8,159.4c-17.5,29.3-33.5,54.7-48.2,76.2
			c-14.7,21.5-26.9,37.3-36.8,47.5c-9.9,10.2-18.9,18.3-26.9,24.4c-8.1,6.2-14.2,8.7-18.4,7.8c-4.2-1-8.3-1.9-12.1-2.8
			c-6.6-4.2-11.9-10-15.9-17.4c-4-7.3-6.7-16.5-8.2-27.6c-1.4-11.1-2.2-20.6-2.5-28.7c-0.2-8-0.1-19.4,0.4-34
			c0.5-14.7,0.7-24.6,0.7-29.8c0-18,0.3-37.5,1-58.5c0.7-21,1.3-37.7,1.8-49.9c0.5-12.3,0.7-25.3,0.7-39c0-13.7-0.8-24.4-2.5-32.2
			c-1.6-7.8-4.1-15.3-7.4-22.7c-3.3-7.3-8.2-13-14.5-17c-6.4-4-14.3-7.2-23.7-9.6c-25-5.7-56.9-8.7-95.6-9.2
			c-87.8-0.9-144.3,4.8-169.3,17c-9.9,5.2-18.9,12.3-26.9,21.2c-8.5,10.4-9.7,16.1-3.6,17c28.4,4.3,48.4,14.4,60.2,30.4l4.2,8.5
			c3.3,6.1,6.6,17,9.9,32.6c3.3,15.6,5.4,32.8,6.4,51.7c2.4,34.5,2.4,64,0,88.6c-2.3,24.5-4.6,43.7-6.7,57.4
			c-2.1,13.7-5.3,24.8-9.6,33.3c-4.2,8.5-7.1,13.7-8.5,15.6c-1.4,1.9-2.6,3.1-3.5,3.5c-6.2,2.4-12.5,3.6-19.2,3.6
			c-6.6,0-14.6-3.3-24.1-9.9c-9.4-6.6-19.2-15.7-29.4-27.3c-10.1-11.5-21.6-27.7-34.4-48.5c-12.7-20.8-25.9-45.3-39.7-73.7
			l-11.3-20.5c-7.1-13.2-16.8-32.4-29-57.7c-12.3-25.3-23.1-49.7-32.6-73.3c-3.8-9.9-9.5-17.4-17-22.7l-3.5-2.1
			c-2.4-1.9-6.2-3.9-11.3-6c-5.2-2.1-10.6-3.7-16.3-4.6L45.3,35.5C25.5,35.5,12.1,40,5,49l-2.8,4.3C0.7,55.6,0,59.4,0,64.6
			c0,5.2,1.4,11.6,4.2,19.2c28.4,66.6,59.1,130.8,92.5,192.7c33.3,61.9,62.2,111.7,86.7,149.5c24.6,37.8,49.6,73.5,75.1,107
			c25.5,33.5,42.4,55,50.6,64.5c8.3,9.5,14.8,16.5,19.5,21.2l17.7,17c11.3,11.3,28,24.9,50,40.7c21.9,15.8,46.3,31.4,72.9,46.8
			c26.7,15.3,57.7,27.8,93.2,37.5c35.4,9.7,69.9,13.6,103.4,11.7h81.5c16.5-1.4,29-6.6,37.5-15.6l2.8-3.5c1.9-2.8,3.7-7.2,5.3-13.1
			c1.7-5.9,2.5-12.4,2.5-19.5c-0.5-20.3,1.1-38.6,4.6-54.9c3.5-16.3,7.6-28.5,12.1-36.8c4.5-8.3,9.5-15.2,15.2-20.9
			c5.6-5.7,9.7-9.1,12.1-10.3c2.3-1.2,4.2-2,5.7-2.5c11.3-3.8,24.7-0.1,40,11c15.3,11.1,29.7,24.8,43.2,41.1
			c13.5,16.3,29.6,34.6,48.5,54.9c18.9,20.3,35.5,35.4,49.6,45.3l14.2,8.5c9.5,5.7,21.7,10.9,36.9,15.6c15.1,4.7,28.3,5.9,39.7,3.6
			l181.4-2.8c17.9,0,31.9-3,41.8-8.9c9.9-5.9,15.8-12.4,17.7-19.4c1.9-7.1,2-15.1,0.4-24.1C1356.7,710.9,1355.1,704.6,1353.5,701.1
			L1353.5,701.1z M1353.5,701.1"/>
	</g>
</g>
</svg>
