<svg xmlns="http://www.w3.org/2000/svg" xmlns:xlink="http://www.w3.org/1999/xlink" width="81" height="82" viewBox="0 0 81 82"><defs><path id="8drha" d="M490.891 1185.859l17.57 17.778-1.174 1.188-1.506 1.522-17.586-17.779c-.745-.736-.745-1.956 0-2.709a1.893 1.893 0 0 1 2.696 0zm28.109-6.038c0 1.439-1.01 2.66-2.416 2.894l-7.544 1.288c-.165.602-.347 1.187-.529 1.789a30.95 30.95 0 0 1-.463 1.321c-.083.218-.15.435-.232.636-.116.3-.248.619-.38.92-.182.401-.348.786-.53 1.17l-.248.502c-.281.569-.579 1.12-.893 1.673-.282.468-.563.936-.86 1.404l-9.216-9.315c-1.853-1.873-2.696-4.499-2.415-7.125.48-4.415-.943-8.997-4.285-12.376-4.103-4.147-10.01-5.368-15.188-3.696a.491.491 0 0 0-.182.803l6.386 6.455c1.804 1.823 1.804 4.817-.016 6.657l-2.763 2.793a4.633 4.633 0 0 1-6.585.017l-6.071-6.138a.467.467 0 0 0-.794.217c-1.241 5 .066 10.52 3.92 14.417 3.177 3.227 7.445 4.683 11.615 4.398 2.465-.167 4.88.686 6.617 2.442l9.728 9.834c-.347.234-.711.468-1.075.686-.563.334-1.158.669-1.754.97-.016.016-.033.016-.05.033a35.491 35.491 0 0 1-2.15 1.004 24.9 24.9 0 0 1-1.555.602 6.27 6.27 0 0 1-.513.184c-.629.217-1.274.418-1.936.585l-1.29 7.693a2.92 2.92 0 0 1-2.862 2.442h-7.578c-1.423 0-2.614-1.02-2.862-2.442l-1.274-7.543a31.203 31.203 0 0 1-8.156-3.344l-6.27 4.515a2.863 2.863 0 0 1-3.723-.3l-2.663-2.693-2.664-2.693a2.964 2.964 0 0 1-.314-3.763l4.467-6.205c-1.456-2.509-2.664-5.268-3.408-8.195l-7.61-1.304c-1.39-.235-2.416-1.472-2.416-2.894v-7.66c0-1.438 1.026-2.659 2.415-2.893l7.462-1.288a29.91 29.91 0 0 1 3.408-8.445l-4.434-6.306a2.942 2.942 0 0 1 .298-3.763l2.663-2.692 2.647-2.726a2.885 2.885 0 0 1 3.723-.318l6.237 4.482a31.37 31.37 0 0 1 8.156-3.412l1.258-7.626c.231-1.388 1.439-2.425 2.796-2.492h7.577c1.423 0 2.63 1.02 2.862 2.442l1.274 7.626c2.895.77 5.625 1.89 8.156 3.412l6.237-4.482a2.863 2.863 0 0 1 3.723.3l2.663 2.693 2.664 2.693a2.964 2.964 0 0 1 .314 3.763l-4.434 6.305a32.094 32.094 0 0 1 3.375 8.245l7.544 1.271c1.39.234 2.416 1.472 2.416 2.894z"/></defs><g><g transform="translate(-438 -1135)"><use fill="#595959" xlink:href="#8drha"/></g></g></svg>