<svg xmlns="http://www.w3.org/2000/svg" xmlns:xlink="http://www.w3.org/1999/xlink" width="65" height="82" viewBox="0 0 65 82"><defs><path id="puwpa" d="M781.317 1160.197h26.384v4.467h-26.384zm0 7.68h26.384v4.467h-26.384zm0 7.696h26.384v4.468h-26.384zm0 7.697h13.175v4.467h-13.175zm15.696 19.107c0 2.192.353 4.283 1.008 6.257h-24.686c-3.495 0-6.335-2.827-6.335-6.307v-53.524c0-3.48 2.84-6.307 6.335-6.307h10.789a10.812 10.812 0 0 1 10.3-7.496c4.824 0 8.907 3.145 10.302 7.496h10.94c3.495 0 6.335 2.827 6.335 6.307v33.915a20.691 20.691 0 0 0-4.705-.553c-1.597 0-3.176.201-4.672.553v-25.716c0-.92-.756-1.657-1.663-1.657h-32.92c-.925 0-1.664.753-1.664 1.657v40.004c0 .92.756 1.656 1.664 1.656h19.325a20.773 20.773 0 0 0-.353 3.715zm-6.37-56.585c0 2.074 1.698 3.764 3.782 3.764s3.781-1.69 3.781-3.764c0-2.075-1.697-3.765-3.781-3.765a3.768 3.768 0 0 0-3.781 3.765zM832 1202.36c0 8.081-6.587 14.64-14.704 14.64s-14.704-6.559-14.704-14.64 6.587-14.64 14.704-14.64S832 1194.28 832 1202.36zm-11.914-.954c-.79-.435-1.63-.752-2.47-1.104-.471-.2-.942-.435-1.345-.753-.807-.636-.655-1.656.286-2.074.252-.118.537-.151.823-.168a6.438 6.438 0 0 1 3.109.62c.487.234.655.15.823-.352.185-.535.336-1.088.488-1.623.1-.351-.017-.602-.37-.753a7.393 7.393 0 0 0-1.966-.586c-.89-.15-.89-.15-.89-1.037-.018-1.255-.018-1.255-1.278-1.255h-.555c-.588.017-.689.134-.705.72v.803c0 .786 0 .786-.757 1.054-1.831.67-2.957 1.907-3.075 3.898-.1 1.757.824 2.945 2.269 3.815.907.535 1.899.853 2.84 1.272.386.167.722.351 1.042.602.907.736.739 1.99-.336 2.46a3.362 3.362 0 0 1-1.815.234c-.975-.117-1.9-.368-2.773-.82-.521-.268-.672-.2-.84.351-.152.469-.286.954-.42 1.44-.185.652-.118.802.504 1.103.79.385 1.647.586 2.504.72.672.117.705.134.705.836.017.318.017.636.017.954 0 .402.202.636.605.636.454.017.925.017 1.395 0 .386-.017.588-.218.588-.602 0-.435.017-.87 0-1.306-.033-.435.168-.652.588-.77a4.801 4.801 0 0 0 2.454-1.572c1.764-2.158 1.092-5.304-1.445-6.743z"/></defs><g><g transform="translate(-767 -1135)"><use fill="#595959" xlink:href="#puwpa"/></g></g></svg>