<svg style="position: absolute; width: 0; height: 0;" width="0" height="0" version="1.1" xmlns="http://www.w3.org/2000/svg" xmlns:xlink="http://www.w3.org/1999/xlink">
	<defs>
		<symbol id="icon-phone" viewBox="0 0 480.56 480.56"  xmlns="http://www.w3.org/2000/svg">
			<g fill="#fff">
				<path d="M365.354 317.9c-15.7-15.5-35.3-15.5-50.9 0-11.9 11.8-23.8 23.6-35.5 35.6-3.2 3.3-5.9 4-9.8 1.8-7.7-4.2-15.9-7.6-23.3-12.2-34.5-21.7-63.4-49.6-89-81-12.7-15.6-24-32.3-31.9-51.1-1.6-3.8-1.3-6.3 1.8-9.4 11.9-11.5 23.5-23.3 35.2-35.1 16.3-16.4 16.3-35.6-.1-52.1-9.3-9.4-18.6-18.6-27.9-28-9.6-9.6-19.1-19.3-28.8-28.8-15.7-15.3-35.3-15.3-50.9.1-12 11.8-23.5 23.9-35.7 35.5-11.3 10.7-17 23.8-18.2 39.1-1.9 24.9 4.2 48.4 12.8 71.3 17.6 47.4 44.4 89.5 76.9 128.1 43.9 52.2 96.3 93.5 157.6 123.3 27.6 13.4 56.2 23.7 87.3 25.4 21.4 1.2 40-4.2 54.9-20.9 10.2-11.4 21.7-21.8 32.5-32.7 16-16.2 16.1-35.8.2-51.8-19-19.1-38.1-38.1-57.2-57.1zM346.254 238.2l36.9-6.3c-5.8-33.9-21.8-64.6-46.1-89-25.7-25.7-58.2-41.9-94-46.9l-5.2 37.1c27.7 3.9 52.9 16.4 72.8 36.3 18.8 18.8 31.1 42.6 35.6 68.8zM403.954 77.8c-42.6-42.6-96.5-69.5-156-77.8l-5.2 37.1c51.4 7.2 98 30.5 134.8 67.2 34.9 34.9 57.8 79 66.1 127.5l36.9-6.3c-9.7-56.2-36.2-107.2-76.6-147.7z"/>
			</g>
		</symbol>
		<symbol id="icon-marker" viewBox="0 0 487.724 487.724"  xmlns="http://www.w3.org/2000/svg">
			<path d="M236.925.124c-96.9 3.4-177.4 79-186.7 175.5-1.9 19.3-.8 38 2.6 55.9 0 0 .3 2.1 1.3 6.1 3 13.4 7.5 26.4 13.1 38.6 19.5 46.2 64.6 123.5 165.8 207.6 6.2 5.2 15.3 5.2 21.6 0 101.2-84 146.3-161.3 165.9-207.7 5.7-12.2 10.1-25.1 13.1-38.6.9-3.9 1.3-6.1 1.3-6.1 2.3-12 3.5-24.3 3.5-36.9 0-109.8-90.9-198.3-201.5-194.4zm6.9 291.2c-52.2 0-94.5-42.3-94.5-94.5s42.3-94.5 94.5-94.5 94.5 42.3 94.5 94.5-42.3 94.5-94.5 94.5z" fill="#fff"/>
		</symbol>
		<symbol id="icon-calendar" viewBox="0 0 489 489" xmlns="http://www.w3.org/2000/svg">
		 <path d="M75.9 267v-34.1c0-5.1 4.1-9.2 9.2-9.2h34.1c5.1 0 9.2 4.1 9.2 9.2V267c0 5.1-4.1 9.2-9.2 9.2H85.1c-5.1-.1-9.2-4.2-9.2-9.2zm80.5 9.1h34.1c5.1 0 9.2-4.1 9.2-9.2v-34.1c0-5.1-4.1-9.2-9.2-9.2h-34.1c-5.1 0-9.2 4.1-9.2 9.2v34.1c.1 5.1 4.2 9.2 9.2 9.2zm71.3 0h34.1c5.1 0 9.2-4.1 9.2-9.2v-34.1c0-5.1-4.1-9.2-9.2-9.2h-34.1c-5.1 0-9.2 4.1-9.2 9.2v34.1c.1 5.1 4.2 9.2 9.2 9.2zm-71.3 69.5h34.1c5.1 0 9.2-4.1 9.2-9.2v-34.1c0-5.1-4.1-9.2-9.2-9.2h-34.1c-5.1 0-9.2 4.1-9.2 9.2v34.1c.1 5.1 4.2 9.2 9.2 9.2zm71.3 0h34.1c5.1 0 9.2-4.1 9.2-9.2v-34.1c0-5.1-4.1-9.2-9.2-9.2h-34.1c-5.1 0-9.2 4.1-9.2 9.2v34.1c.1 5.1 4.2 9.2 9.2 9.2zm71.4 0h34.1c5.1 0 9.2-4.1 9.2-9.2v-34.1c0-5.1-4.1-9.2-9.2-9.2h-34.1c-5.1 0-9.2 4.1-9.2 9.2v34.1c0 5.1 4.1 9.2 9.2 9.2zm-214 0h34.1c5.1 0 9.2-4.1 9.2-9.2v-34.1c0-5.1-4.1-9.2-9.2-9.2H85.1c-5.1 0-9.2 4.1-9.2 9.2v34.1c0 5.1 4.1 9.2 9.2 9.2zM227.7 415h34.1c5.1 0 9.2-4.1 9.2-9.2v-34.1c0-5.1-4.1-9.2-9.2-9.2h-34.1c-5.1 0-9.2 4.1-9.2 9.2v34.1c.1 5.1 4.2 9.2 9.2 9.2zm-71.3 0h34.1c5.1 0 9.2-4.1 9.2-9.2v-34.1c0-5.1-4.1-9.2-9.2-9.2h-34.1c-5.1 0-9.2 4.1-9.2 9.2v34.1c.1 5.1 4.2 9.2 9.2 9.2zm142.7-138.9h34.1c5.1 0 9.2-4.1 9.2-9.2v-34.1c0-5.1-4.1-9.2-9.2-9.2h-34.1c-5.1 0-9.2 4.1-9.2 9.2v34.1c0 5.1 4.1 9.2 9.2 9.2zm71.3 69.5h34.1c5.1 0 9.2-4.1 9.2-9.2v-34.1c0-5.1-4.1-9.2-9.2-9.2h-34.1c-5.1 0-9.2 4.1-9.2 9.2v34.1c.1 5.1 4.2 9.2 9.2 9.2zM299.1 415h34.1c5.1 0 9.2-4.1 9.2-9.2v-34.1c0-5.1-4.1-9.2-9.2-9.2h-34.1c-5.1 0-9.2 4.1-9.2 9.2v34.1c0 5.1 4.1 9.2 9.2 9.2zM0 435.5V106.2c0-29.5 24-53.5 53.5-53.5h60V19.5C113.5 8.7 122.2 0 133 0h30.5C174.3 0 183 8.7 183 19.5v33.1h123V19.5C306 8.7 314.7 0 325.5 0H356c10.8 0 19.5 8.7 19.5 19.5v33.1h60c29.5 0 53.5 24 53.5 53.5v329.4c0 29.5-24 53.5-53.5 53.5h-382C24 489 0 465 0 435.5zm41.4 0c0 6.7 5.5 12.2 12.2 12.2h381.9c6.7 0 12.2-5.5 12.2-12.2V191.6H41.4v243.9z"/>
 		</symbol>
		<symbol id="icon-search" viewBox="0 0 30.239 30.239"  xmlns="http://www.w3.org/2000/svg">
			<path d="M20.194 3.46c-4.613-4.613-12.121-4.613-16.734 0-4.612 4.614-4.612 12.121 0 16.735 4.108 4.107 10.506 4.547 15.116 1.34.097.459.319.897.676 1.254l6.718 6.718a2.498 2.498 0 0 0 3.535 0 2.496 2.496 0 0 0 0-3.535l-6.718-6.72a2.5 2.5 0 0 0-1.253-.674c3.209-4.611 2.769-11.008-1.34-15.118zm-2.121 14.614c-3.444 3.444-9.049 3.444-12.492 0-3.442-3.444-3.442-9.048 0-12.492 3.443-3.443 9.048-3.443 12.492 0 3.444 3.444 3.444 9.048 0 12.492z" fill="#fff"/>
		</symbol>
		<symbol  id="icon-facebook" viewBox="0 0 310 310"  xmlns="http://www.w3.org/2000/svg">
		 <path id="76ab37d8" d="M81.703 165.106h33.981V305a5 5 0 0 0 5 5H178.3a5 5 0 0 0 5-5V165.765h39.064a5 5 0 0 0 4.967-4.429l5.933-51.502a5 5 0 0 0-4.966-5.572h-44.996V71.978c0-9.732 5.24-14.667 15.576-14.667h29.42a5 5 0 0 0 5-5V5.037a5 5 0 0 0-5-5h-40.545A39.746 39.746 0 0 0 185.896 0c-7.035 0-31.488 1.381-50.804 19.151-21.402 19.692-18.427 43.27-17.716 47.358v37.752H81.703a5 5 0 0 0-5 5v50.844a5 5 0 0 0 5 5.001z"/>
 		</symbol>
  	<symbol id="icon-vk" viewBox="0 0 304.36 304.36"  xmlns="http://www.w3.org/2000/svg">
 			<path d="M261.945 175.576c10.096 9.857 20.752 19.131 29.807 29.982 4 4.822 7.787 9.798 10.684 15.394 4.105 7.955.387 16.709-6.746 17.184l-44.34-.02c-11.436.949-20.559-3.655-28.23-11.474-6.139-6.253-11.824-12.908-17.727-19.372-2.42-2.642-4.953-5.128-7.979-7.093-6.053-3.929-11.307-2.726-14.766 3.587-3.523 6.421-4.322 13.531-4.668 20.687-.475 10.441-3.631 13.186-14.119 13.664-22.414 1.057-43.686-2.334-63.447-13.641-17.422-9.968-30.932-24.04-42.691-39.971-22.895-31.021-40.428-65.108-56.186-100.15C-2.01 76.458.584 72.22 9.295 72.07c14.465-.281 28.928-.261 43.41-.02 5.879.086 9.771 3.458 12.041 9.012 7.826 19.243 17.402 37.551 29.422 54.521 3.201 4.518 6.465 9.036 11.113 12.216 5.142 3.521 9.057 2.354 11.476-3.374 1.535-3.632 2.207-7.544 2.553-11.434 1.146-13.383 1.297-26.743-.713-40.079-1.234-8.323-5.922-13.711-14.227-15.286-4.238-.803-3.607-2.38-1.555-4.799 3.564-4.172 6.916-6.769 13.598-6.769h50.111c7.889 1.557 9.641 5.101 10.721 13.039l.043 55.663c-.086 3.073 1.535 12.192 7.07 14.226 4.43 1.448 7.35-2.096 10.008-4.905 11.998-12.734 20.561-27.783 28.211-43.366 3.395-6.852 6.314-13.968 9.143-21.078 2.096-5.276 5.385-7.872 11.328-7.757l48.229.043c1.43 0 2.877.021 4.262.258 8.127 1.385 10.354 4.881 7.844 12.817-3.955 12.451-11.65 22.827-19.174 33.251-8.043 11.129-16.645 21.877-24.621 33.072-7.328 10.223-6.746 15.376 2.357 24.255zm0 0" fill-rule="evenodd" clip-rule="evenodd"/>
 		</symbol>
 		<symbol id="icon-ok" viewBox="0 0 95.481 95.481"  xmlns="http://www.w3.org/2000/svg">
 			<g>
 				<path d="M43.041 67.254c-7.402-.772-14.076-2.595-19.79-7.064-.709-.556-1.441-1.092-2.088-1.713-2.501-2.402-2.753-5.153-.774-7.988 1.693-2.426 4.535-3.075 7.489-1.682.572.27 1.117.607 1.639.969 10.649 7.317 25.278 7.519 35.967.329 1.059-.812 2.191-1.474 3.503-1.812 2.551-.655 4.93.282 6.299 2.514 1.564 2.549 1.544 5.037-.383 7.016-2.956 3.034-6.511 5.229-10.461 6.761-3.735 1.448-7.826 2.177-11.875 2.661.611.665.899.992 1.281 1.376 5.498 5.524 11.02 11.025 16.5 16.566 1.867 1.888 2.257 4.229 1.229 6.425-1.124 2.4-3.64 3.979-6.107 3.81-1.563-.108-2.782-.886-3.865-1.977-4.149-4.175-8.376-8.273-12.441-12.527-1.183-1.237-1.752-1.003-2.796.071-4.174 4.297-8.416 8.528-12.683 12.735-1.916 1.889-4.196 2.229-6.418 1.15-2.362-1.145-3.865-3.556-3.749-5.979.08-1.639.886-2.891 2.011-4.014 5.441-5.433 10.867-10.88 16.295-16.322.359-.362.694-.746 1.217-1.305z"/>
 				<path d="M47.55 48.329c-13.205-.045-24.033-10.992-23.956-24.218C23.67 10.739 34.505-.037 47.84 0c13.362.036 24.087 10.967 24.02 24.478-.068 13.199-10.971 23.897-24.31 23.851zm12.001-24.186c-.023-6.567-5.253-11.795-11.807-11.801-6.609-.007-11.886 5.316-11.835 11.943.049 6.542 5.324 11.733 11.896 11.709 6.552-.023 11.768-5.285 11.746-11.851z"/>
 			</g>
 		</symbol>
		<symbol id="icon-right" viewBox="0 0 284.929 284.929"  xmlns="http://www.w3.org/2000/svg">
			<path d="M282.082 76.511l-14.274-14.273c-1.902-1.906-4.093-2.856-6.57-2.856-2.471 0-4.661.95-6.563 2.856L142.466 174.441 30.262 62.241c-1.903-1.906-4.093-2.856-6.567-2.856-2.475 0-4.665.95-6.567 2.856L2.856 76.515C.95 78.417 0 80.607 0 83.082c0 2.473.953 4.663 2.856 6.565l133.043 133.046c1.902 1.903 4.093 2.854 6.567 2.854s4.661-.951 6.562-2.854L282.082 89.647c1.902-1.903 2.847-4.093 2.847-6.565 0-2.475-.945-4.665-2.847-6.571z"/>
		</symbol>

		<symbol id="icon-arrow-left" viewBox="0 0 492 492" xmlns="http://www.w3.org/2000/svg">
			<path d="M198.608 246.104L382.664 62.04c5.068-5.056 7.856-11.816 7.856-19.024 0-7.212-2.788-13.968-7.856-19.032l-16.128-16.12C361.476 2.792 354.712 0 347.504 0s-13.964 2.792-19.028 7.864L109.328 227.008c-5.084 5.08-7.868 11.868-7.848 19.084-.02 7.248 2.76 14.028 7.848 19.112l218.944 218.932c5.064 5.072 11.82 7.864 19.032 7.864 7.208 0 13.964-2.792 19.032-7.864l16.124-16.12c10.492-10.492 10.492-27.572 0-38.06L198.608 246.104z"/>
		</symbol>
		<symbol id="icon-arrow-right" viewBox="0 0 492.004 492.004"  xmlns="http://www.w3.org/2000/svg">
			<path d="M382.678 226.804L163.73 7.86C158.666 2.792 151.906 0 144.698 0s-13.968 2.792-19.032 7.86l-16.124 16.12c-10.492 10.504-10.492 27.576 0 38.064L293.398 245.9l-184.06 184.06c-5.064 5.068-7.86 11.824-7.86 19.028 0 7.212 2.796 13.968 7.86 19.04l16.124 16.116c5.068 5.068 11.824 7.86 19.032 7.86s13.968-2.792 19.032-7.86L382.678 265c5.076-5.084 7.864-11.872 7.848-19.088.016-7.244-2.772-14.028-7.848-19.108z"/>
		</symbol>
		<symbol id="icon-star" viewBox="0 0 49.655 49.654"  xmlns="http://www.w3.org/2000/svg">
 			<path d="M24.827 0C11.138 0 0 11.137 0 24.826c0 13.688 11.137 24.828 24.826 24.828 13.688 0 24.827-11.14 24.827-24.828C49.653 11.137 38.516 0 24.827 0zm13.716 23.011l-7.188 5.201 2.769 8.46a1.34 1.34 0 0 1-2.054 1.504l-7.244-5.24-7.243 5.24a1.338 1.338 0 0 1-2.054-1.504l2.769-8.46-7.187-5.2v-.001a1.336 1.336 0 0 1 .784-2.42h8.897l2.755-8.421a1.339 1.339 0 0 1 2.56 0l2.754 8.421h8.896a1.337 1.337 0 0 1 .786 2.42z"/>
		</symbol>
		<symbol id="icon-car" viewBox="0 0 489.2 489.2" xmlns="http://www.w3.org/2000/svg">
			<path d="M472 295.25v-.4H297c-32.5 0-58.8-26.3-58.8-58.8v-106c0-7.3-5.9-13.2-13.2-13.2h-56c-13.5 0-25.1 6.7-32.5 16.5-.6.6-1.2 1.8-1.8 2.4l-47.2 71.1-27.5 4.3c-22.1 0-39.8 17.8-39.8 39.8v58.2c-11 1.2-20.2 11-20.2 22.7v28.8c0 12.3 9.8 22.7 22.7 22.7h28.2c7.3 25.2 30.6 44.2 58.8 44.2s51.5-18.4 58.8-44.1H316.4c7.4 25.1 30.6 44.1 58.8 44.1 28.2 0 51.5-18.4 58.8-44.1h32.5c12.3 0 22.7-9.8 22.7-22.7v-43.4c0-10.4-7.4-19.6-17.2-22.1zm-362.3 101.6c-16.5 0-30.6-14.1-30.6-30.6s13.5-30.6 30.6-30.6c16.5 0 30.6 14.1 30.6 30.6s-13.5 30.6-30.6 30.6zm265.5 0c-17.2 0-30.6-14.1-30.6-30.6s13.5-30.6 30.6-30.6c16.5 0 30.6 14.1 30.6 30.6.1 16.5-13.4 30.6-30.6 30.6z"/>
			<path d="M306.2 260.85h149.7c17.8 0 32.2-15.1 32.2-33.6v-132c0-18.5-14.4-33.6-32.2-33.6H306.2c-17.8 0-32.2 15.1-32.2 33.6v132.1c0 18.4 14.4 33.5 32.2 33.5zm148-33.7H426l28.2-28.2v28.2zm.1-63.1l-63.1 63.1h-27.7l90.9-90.9-.1 27.8zm-146.6-49.3v-.3l.1-19.2H335l-27.3 27.3v-7.8zm0 42.8l62.2-62.2h27.7l-89.9 89.9v-27.7zm0 62.6l124.9-124.8h21.7v6l-125.8 125.8h-20.8v-7z"/>
 		</symbol>
		 <symbol id="icon-big-marker" viewBox="0 0 47.825 47.825" xmlns="http://www.w3.org/2000/svg">
			<path d="M36.439 12.646c0-6.919-5.608-12.527-12.528-12.527S11.384 5.727 11.384 12.646c0 9.913 12.527 24.582 12.527 24.582s12.528-14.72 12.528-24.582zm-18.706-.748a6.18 6.18 0 1 1 12.358 0 6.18 6.18 0 0 1-12.358 0z"/>
			<circle cx="23.911" cy="11.898" r="3.038"/>
			<path d="M30.994 32.87a88.912 88.912 0 0 1-2.777 3.793c7.916.476 13.104 2.185 15.034 3.456-2.261 1.491-8.979 3.587-19.338 3.587-10.358 0-17.077-2.097-19.338-3.587 1.93-1.271 7.114-2.979 15.022-3.455a87.691 87.691 0 0 1-2.781-3.792C7.075 33.831 0 36.713 0 40.118c0 4.19 10.707 7.588 23.913 7.588 13.207 0 23.912-3.396 23.912-7.588.002-3.407-7.081-6.29-16.831-7.248z"/>
		</symbol>
		 <symbol id="icon-credit" viewBox="0 0 488.636 488.636" xmlns="http://www.w3.org/2000/svg">
			<path d="M384.936 125.936c7.1 0 9.1-9.6 2.7-12.5l-249.9-110.8c-15.2-6.8-33.1 0-39.9 15.3l-87.5 196.2c-6.8 15.2 0 33.1 15.3 39.9l50.4 21.8c6.3 2.8 13.5-1.8 13.5-8.7v-83.3c0-31.9 25.9-57.8 57.8-57.8h237.6v-.1z"/>
			<path d="M450.336 153.136h-303.1c-16.9 0-30.6 13.7-30.6 30.6v214.1c0 16.9 13.7 30.6 30.6 30.6h40.7c-1-6-1.5-12.1-1.5-18.3 0-7 .7-13.8 1.9-20.5h-32.8v-102.5h286.6v102.4h-32.9c1.2 6.7 1.9 13.5 1.9 20.5 0 6.2-.5 12.3-1.5 18.3h40.7c16.9 0 30.6-13.7 30.6-30.6v-214c0-16.9-13.7-30.6-30.6-30.6zm-8.2 70.9h-286.6v-32.1h286.6v32.1z"/>
			<path d="M298.836 331.436c-43.4 0-78.6 35.2-78.6 78.6s35.2 78.6 78.6 78.6 78.6-35.2 78.6-78.6-35.2-78.6-78.6-78.6zm22.6 109.6c-3.4 4.2-7.9 7-13.1 8.4-2.3.6-3.3 1.8-3.2 4.2.1 2.3 0 4.6 0 7 0 2.1-1.1 3.2-3.1 3.2-2.5.1-5 .1-7.5 0-2.2 0-3.2-1.3-3.2-3.4v-5.1c0-3.7-.2-3.9-3.8-4.5-4.6-.7-9.1-1.8-13.3-3.8-3.3-1.6-3.7-2.4-2.7-5.9.7-2.6 1.4-5.2 2.2-7.7.9-3 1.7-3.3 4.5-1.9 4.7 2.4 9.6 3.8 14.8 4.4 3.3.4 6.6.1 9.7-1.3 5.8-2.5 6.7-9.2 1.8-13.2-1.7-1.4-3.5-2.4-5.5-3.2-5.1-2.2-10.4-3.9-15.1-6.8-7.8-4.6-12.7-11-12.1-20.5.6-10.7 6.7-17.3 16.5-20.9 4-1.5 4.1-1.4 4.1-5.6v-4.3c.1-3.2.6-3.7 3.8-3.8h2.9c6.8 0 6.8 0 6.8 6.8 0 4.8 0 4.8 4.8 5.5 3.6.6 7.1 1.6 10.5 3.1 1.9.8 2.6 2.1 2 4.1-.8 2.9-1.6 5.9-2.6 8.7-.9 2.7-1.8 3.1-4.4 1.9-5.3-2.6-10.8-3.6-16.6-3.3-1.5.1-3 .3-4.4.9-5 2.2-5.9 7.8-1.6 11.2 2.2 1.7 4.6 3 7.2 4.1 4.5 1.8 8.9 3.6 13.2 6 13.2 7.3 16.9 24.2 7.4 35.7z"/>
		</symbol>
		 <symbol id="icon-folded" viewBox="0 0 48.001 48.001" xmlns="http://www.w3.org/2000/svg">
			<g >
			<path d="M13.685 12.034h20.621v3H13.685zM13.685 19.224h20.621v3H13.685z"/>
			<path d="M43.015 0h-38a1 1 0 0 0-1 1v33.323c-.011.096-.029.189-.029.29 0 4.912 3.681 8.972 8.428 9.589l-.029.021L42.016 48a2 2 0 0 0 2-2V1c-.001-.553-.45-1-1.001-1zm-4 42.207l-19.84-11.635c-.466-.297-.844-.09-.844.464v3.422-.015c-.004.058 0 .11 0 .17a4.674 4.674 0 0 1-4.667 4.679c-2.58 0-4.649-1.929-4.649-4.508 0-.091.009-.22 0-.309V5h30v37.207z"/>
			</g>
	 	</symbol>
		 <symbol id="icon-paint" viewBox="0 -14 512.001 512"  xmlns="http://www.w3.org/2000/svg">
			<path d="M452.133 236.953a14.996 14.996 0 0 0-21.211 0c-2.442 2.442-59.867 60.567-59.867 121.55 0 38.856 31.613 70.47 70.468 70.474h.004c38.856-.004 70.473-31.614 70.473-70.473-.004-60.984-57.422-119.106-59.867-121.55zm0 0M374.953 259.379c16.23-24.867 32.91-41.793 34.754-43.637a45.027 45.027 0 0 1 12.414-8.8L247.31 32.128a14.955 14.955 0 0 0-10.606-4.395c-3.84 0-7.676 1.465-10.605 4.395l-48.516 48.516 100.613 100.62a48.249 48.249 0 0 1 14.727 10.079c18.82 18.824 18.824 49.457 0 68.281-9.121 9.117-21.246 14.14-34.145 14.14-12.894 0-25.02-5.023-34.14-14.14-9.117-9.121-14.14-21.246-14.14-34.14 0-12.9 5.023-25.024 14.144-34.141a48.432 48.432 0 0 1 12.285-8.926L58.902 4.395c-5.855-5.86-15.351-5.86-21.21 0-5.86 5.855-5.86 15.351 0 21.21l97.46 97.465L16.555 241.676c-22.07 22.066-22.075 57.976-.004 80.05l145.992 145.985c10.656 10.656 24.871 16.523 40.023 16.523h.004c15.149 0 29.364-5.867 40.024-16.523l98.976-98.984c-.34-3.364-.515-6.774-.515-10.223 0-31.32 11.406-64.672 33.898-99.125zm0 0"/>
		</symbol>
		 <symbol id="icon-flask" viewBox="0 0 48 48" xmlns="http://www.w3.org/2000/svg">
			<path d="M42.504 39.673L29.88 16.027V4.021h1.249a1 1 0 0 0 1-1V1a1 1 0 0 0-1-1H15.898a1 1 0 0 0-1 1v2.021a1 1 0 0 0 1 1h1.144v12.007L5.421 39.57C2.451 44.226 4.519 48 10.042 48h27.999c5.522 0 7.52-3.729 4.463-8.327zM20.628 17.798l.413-.837V4.021h4.839v13.008l.471.883 5.41 10.132h-16.19l5.057-10.246z"/>
		</symbol>
		<symbol id="icon-mark" viewBox="-21 126.3 797.3 343" xmlns="http://www.w3.org/2000/svg">
			<style>.ast0{opacity:.9}.ast1{fill:red}.ast2{opacity:.8}</style>
			<g id="aXMLID_15_" class="ast0">
			<path id="aXMLID_112_" class="ast1" d="M376.7 380.4h-42.5v26.8h50.2V428h-77.2V316h77.3v20.8h-50.3v23.6h42.5v20z"/>
			<path id="aXMLID_114_" class="ast1" d="M487.1 414.1c-4.2 4.6-10.2 8.3-18.2 11.2-8 2.8-16.8 4.2-26.3 4.2-14.7 0-26.4-4.5-35.2-13.5-8.8-9-13.5-21.5-14.1-37.5l-.1-9.7c0-11 1.9-20.7 5.8-28.9s9.5-14.6 16.7-19c7.3-4.4 15.7-6.7 25.2-6.7 13.9 0 24.8 3.2 32.5 9.6s12.2 15.9 13.5 28.6h-26c-.9-6.3-2.9-10.7-6-13.4-3.1-2.7-7.4-4-13.1-4-6.8 0-12 2.9-15.7 8.6s-5.6 13.9-5.6 24.6v6.8c0 11.2 1.9 19.6 5.7 25.2 3.8 5.6 9.8 8.4 18 8.4 7 0 12.3-1.6 15.7-4.7v-17.4h-18.8V368h45.8v46.1h.2z"/>
			<path id="aXMLID_116_" class="ast1" d="M593.4 390c-.4 7.8-2.5 14.7-6.3 20.7s-9.2 10.6-16.2 13.9c-6.9 3.3-14.9 4.9-23.8 4.9-14.7 0-26.3-4.8-34.8-14.4s-12.7-23.1-12.7-40.6V369c0-11 1.9-20.6 5.7-28.8 3.8-8.2 9.3-14.6 16.5-19.1s15.5-6.7 24.9-6.7c13.6 0 24.5 3.6 32.8 10.7 8.3 7.2 12.9 17 14.1 29.6h-26.9c-.2-6.8-1.9-11.7-5.2-14.7-3.2-3-8.2-4.5-14.8-4.5-6.7 0-11.6 2.5-14.8 7.5-3.1 5-4.8 13.1-4.9 24.1v7.9c0 12 1.5 20.5 4.5 25.6s8.2 7.7 15.5 7.7c6.2 0 10.9-1.5 14.2-4.4s5-7.6 5.2-13.9h27z"/>
			<path id="aXMLID_118_" class="ast1" d="M608 416.3c0-3.7 1.3-6.8 3.8-9.1s5.7-3.5 9.5-3.5c3.9 0 7 1.2 9.6 3.5 2.5 2.3 3.8 5.4 3.8 9.1s-1.3 6.7-3.7 9c-2.5 2.3-5.7 3.5-9.6 3.5-3.9 0-7-1.2-9.5-3.5-2.7-2.3-3.9-5.3-3.9-9z"/>
			<path id="aXMLID_120_" class="ast1" d="M725.2 383.3h-43.5v44.6h-27v-112h74.9v20.8h-47.9v25.8h43.5v20.8z"/>
			<path id="aXMLID_122_" class="ast1" d="M769.6 427.9h-26.9v-112h26.9v112z"/>
			</g>
			<g id="aXMLID_16_">
			<path id="aXMLID_40_" class="ast1" d="M307.1 279.6v-61.5H326c8.1 0 14.5 2.5 19.4 7.4 4.9 4.9 7.3 11.3 7.3 19.2v8.4c0 7.9-2.4 14.2-7.3 19.2-4.9 4.9-11.3 7.4-19.4 7.4h-18.9v-.1zm8.4-54.9v48.4H326c5.7 0 10.2-1.9 13.5-5.6s4.9-8.5 4.9-14.4v-8.5c0-5.8-1.6-10.6-4.9-14.3s-7.8-5.6-13.5-5.6h-10.5z"/>
			<path id="aXMLID_49_" class="ast1" d="M381.6 280.5c-6.4 0-11.4-2.1-15.2-6.4-3.8-4.2-5.6-9.7-5.6-16.5v-1.9c0-6.5 1.9-11.9 5.8-16.2s8.5-6.5 13.8-6.5c6.2 0 10.8 1.9 14 5.6s4.7 8.7 4.7 14.9v5.2h-29.7l-.1.2c.1 4.4 1.2 8 3.3 10.8 2.1 2.8 5.1 4.2 9 4.2 2.8 0 5.3-.4 7.4-1.2 2.1-.8 4-1.9 5.5-3.3l3.3 5.4c-1.6 1.6-3.8 3-6.5 4-2.7 1.2-5.9 1.7-9.7 1.7zm-1.3-40.9c-2.8 0-5.2 1.2-7.1 3.5-2 2.3-3.2 5.3-3.6 8.8l.1.2h21.1V251c0-3.3-.9-6-2.6-8.2-1.9-2.1-4.5-3.2-7.9-3.2z"/>
			<path id="aXMLID_52_" class="ast1" d="M434.9 267.5c0-1.8-.7-3.3-2.1-4.5-1.4-1.2-4-2.2-7.9-3.1-5.6-1.2-9.7-2.8-12.5-4.9s-4.2-4.9-4.2-8.5c0-3.7 1.6-6.9 4.7-9.5 3.2-2.6 7.3-3.9 12.3-3.9 5.3 0 9.6 1.4 12.7 4.1s4.6 6.1 4.5 10l-.1.3h-7.9c0-2-.8-3.8-2.5-5.4-1.7-1.6-3.9-2.4-6.7-2.4-3 0-5.2.6-6.6 1.9s-2.2 2.9-2.2 4.7.6 3.2 1.9 4.3c1.3 1 3.8 2 7.7 2.8 5.8 1.2 10.1 2.9 12.9 5s4.2 5 4.2 8.6c0 4.1-1.6 7.3-4.9 9.8s-7.6 3.8-12.9 3.8c-5.8 0-10.4-1.5-13.8-4.4-3.4-3-4.9-6.4-4.8-10.4l.1-.3h7.9c.1 2.9 1.2 5.1 3.3 6.5 2.1 1.4 4.5 2 7.2 2 3 0 5.3-.6 7-1.8 1.9-1.2 2.7-2.8 2.7-4.7z"/>
			<path id="aXMLID_61_" class="ast1" d="M462.6 222.2h-8.3v-8.5h8.3v8.5zm0 57.4h-8.3v-45.7h8.3v45.7z"/>
			<path id="aXMLID_64_" class="ast1" d="M473.6 257.6c0-7.4 1.6-13.3 4.8-17.8 3.2-4.5 7.6-6.8 13.3-6.8 2.9 0 5.5.6 7.6 1.8 2.2 1.2 4 2.9 5.5 5l1-6h6.6v46c0 5.9-1.7 10.4-5.1 13.5-3.4 3.1-8.3 4.7-14.7 4.7-2.2 0-4.6-.3-7.1-.9-2.6-.6-4.8-1.4-6.7-2.5l2.1-6.5c1.5.8 3.3 1.5 5.4 2s4.2.8 6.3.8c4.1 0 7-.9 8.9-2.8 1.8-1.8 2.8-4.7 2.8-8.4v-5.2c-1.5 1.9-3.3 3.4-5.4 4.3-2.1 1-4.5 1.5-7.2 1.5-5.6 0-10-2-13.2-6.1s-4.8-9.4-4.8-15.9l-.1-.7zm8.3.9c0 4.6 1 8.3 2.9 11.1 1.9 2.8 4.9 4.2 8.9 4.2 2.5 0 4.6-.6 6.3-1.7 1.7-1.1 3.1-2.8 4.2-4.8v-21c-1.1-1.9-2.5-3.5-4.2-4.6-1.7-1.1-3.8-1.7-6.2-1.7-4 0-6.9 1.7-8.9 5s-3 7.6-3 12.8v.7z"/>
			<path id="aXMLID_99_" class="ast1" d="M532 233.9l.6 6.8c1.5-2.4 3.4-4.3 5.7-5.6s4.9-2 7.8-2c4.9 0 8.7 1.4 11.5 4.3 2.7 2.9 4.1 7.3 4.1 13.4v28.9h-8.3V251c0-4-.8-6.9-2.4-8.6-1.6-1.7-4-2.5-7.3-2.5-2.4 0-4.5.6-6.4 1.7-1.8 1.2-3.3 2.7-4.4 4.7v33.3h-8.3v-45.7h7.4z"/>
			<path id="aXMLID_101_" class="ast1" d="M592.8 280.5c-6.4 0-11.4-2.1-15.2-6.4-3.8-4.2-5.6-9.7-5.6-16.5v-1.9c0-6.5 1.9-11.9 5.8-16.2 3.9-4.3 8.5-6.5 13.8-6.5 6.2 0 10.8 1.9 14 5.6s4.7 8.7 4.7 14.9v5.2h-29.7l-.1.2c.1 4.4 1.2 8 3.3 10.8 2.1 2.8 5.1 4.2 9 4.2 2.8 0 5.3-.4 7.4-1.2 2.1-.8 4-1.9 5.5-3.3l3.3 5.4c-1.6 1.6-3.8 3-6.5 4s-5.9 1.7-9.7 1.7zm-1.3-40.9c-2.8 0-5.2 1.2-7.1 3.5-2 2.3-3.2 5.3-3.6 8.8l.1.2H602V251c0-3.3-.9-6-2.6-8.2-1.9-2.1-4.5-3.2-7.9-3.2z"/>
			<path id="aXMLID_104_" class="ast1" d="M617.6 257.6c0-7.4 1.6-13.3 4.7-17.8s7.5-6.8 13.2-6.8c2.7 0 5 .5 7.1 1.5s3.8 2.4 5.3 4.3v-25.1h8.3v65.9h-6.8l-1-5.6c-1.5 2.1-3.3 3.8-5.5 4.9s-4.7 1.6-7.6 1.6c-5.6 0-9.9-2-13.1-6.1-3.2-4-4.7-9.4-4.7-16l.1-.8zm8.4.9c0 4.6.9 8.3 2.8 11.1 1.9 2.8 4.8 4.2 8.8 4.2 2.5 0 4.6-.6 6.3-1.7 1.7-1.1 3.1-2.7 4.1-4.7v-21.3c-1.1-1.9-2.5-3.4-4.2-4.5-1.7-1.1-3.8-1.7-6.1-1.7-4 0-7 1.6-8.9 4.9s-2.9 7.6-2.9 12.8v.9h.1z"/>
			<path id="aXMLID_107_" class="ast1" d="M729.3 258.5c0 6.6-1.6 11.9-4.8 16-3.2 4-7.5 6.1-13.1 6.1-3 0-5.6-.6-7.9-1.8-2.2-1.2-4.1-2.9-5.5-5.2l-1 6h-6.8v-65.9h8.3v25.6c1.4-2 3.2-3.6 5.3-4.6 2.1-1.1 4.6-1.6 7.5-1.6 5.6 0 10 2.3 13.2 6.8s4.7 10.4 4.7 17.8l.1.8zm-8.3-.9c0-5.2-1-9.5-2.9-12.8s-4.9-5-8.8-5c-2.6 0-4.7.6-6.5 1.9s-3.2 2.9-4.2 5v19.8c1.1 2.3 2.5 4 4.2 5.3 1.7 1.3 3.9 1.9 6.6 1.9 3.9 0 6.8-1.4 8.7-4.2 1.9-2.8 2.9-6.5 2.9-11.1v-.8z"/>
			<path id="aXMLID_110_" class="ast1" d="M753 262.7l1.5 5.7h.3l11.2-34.5h9.3L756 286.6c-1.2 3.1-2.8 5.7-5 8s-5.1 3.4-8.7 3.4c-.7 0-1.5-.1-2.6-.2s-1.8-.3-2.4-.4l.8-6.5c-.2 0 .3 0 1.5.1s1.9.1 2.2.1c1.8 0 3.2-.8 4.4-2.4 1.1-1.6 2.1-3.3 2.8-5.2l2-4.8-17-44.8h9.3l9.7 28.8z"/>
			</g>
			<g id="aXMLID_84_" class="ast2">
			<path id="aXMLID_87_" class="ast1" d="M230.1 219.6l2.2.7-40.2 40.2c-1.7-2.6-3.6-5-5.6-7.2-.2-.2-.3-.3-.4-.5l42.2-40.4c1.3 3.4 1.2 6.4 1.2 6.4v.6l.6.2z"/>
			<path id="aXMLID_86_" class="ast1" d="M240.8 211.9l-1.8 1.8c-1.7-2.2-3.7-4.3-5.6-6.1l1.6-1.5c3.6.5 5.6 2.4 5.8 5.8z"/>
			<path id="aXMLID_85_" class="ast1" d="M260.1 238.2S246.9 256 226.5 256h-1s4.5-4.7 4.3-10.5c0 0 15.7-5.8 6.3-24.8l-3.1-1-2.6-.8s.1-3.3-1.4-7c-.9-2.4-2.5-5-5.2-7l1.7-2.8s3.5 2.4 7.4 6.1c1.9 1.8 3.9 3.8 5.6 6.1.6.8 1.1 1.5 1.7 2.3 5.1 7.8 11.8 18.7 19.9 21.6z"/>
			</g>
			<g id="aXMLID_80_" class="ast2">
			<path id="aXMLID_83_" class="ast1" d="M64.1 213.6l-1.8-1.8c.3-3.3 2.3-5.2 5.8-5.8l1.7 1.6c-2 1.7-4 3.8-5.7 6z"/>
			<path id="aXMLID_82_" class="ast1" d="M109.1 245.1c-2 1.3-3.7 2.7-4.6 3.4-.7-1-2.1-3.2-3.3-5.2l-.3-.7v-.1l-.4-.9-1.2-2.8-.3 3c-.1 1.8-.4 3.7-.8 5.7l-27.4-27.2 2.2-.7.6-.2v-.6c0-.1 0-3 1.2-6.4l34.3 32.7z"/>
			<path id="aXMLID_81_" class="ast1" d="M74.2 211.8c-1.5 3.7-1.4 7-1.4 7l-2.6.8-3.1 1c-9.3 19.1 6.3 24.8 6.3 24.8-.3 5.8 4.3 10.5 4.3 10.5h-1c-20.4 0-33.6-17.8-33.6-17.8 8-2.8 14.8-13.8 19.9-21.7.5-.8 1.1-1.6 1.7-2.3 1.7-2.2 3.7-4.3 5.6-6.1 3.9-3.7 7.4-6.1 7.4-6.1l1.7 2.8c-2.7 2.1-4.3 4.7-5.2 7.1z"/>
			</g>
			<g id="aXMLID_73_" class="ast2">
			<path id="aXMLID_79_" class="ast1" d="M119.1 330.5c1 .9 2 1.8 3 2.6l-16.9 16.3c-2.5-1.5-4.3-3-5.7-4.5l17.5-16.5c.6.7 1.4 1.4 2.1 2.1z"/>
			<path id="aXMLID_78_" class="ast1" d="M114.7 325.7c.6.7 1.1 1.4 1.7 2l-17.5 16.5c-1.3-1.4-2.5-3.1-3.7-5.3l17.1-16.5c.1.1.1.2.2.2l.1.1c.6 1.1 1.3 2.1 2.1 3z"/>
			<path id="aXMLID_77_" class="ast1" d="M109.2 353l-3.2 3.1h-.2c-2.9-1.3-5.6-2.9-8-5-.1 0-.1-.1-.1-.1s-.1 0-.1-.1c-.8-.7-1.5-1.4-2.3-2.1-.7-.8-1.5-1.6-2.1-2.4l-.1-.1-.1-.1c-2-2.5-3.5-5.3-4.7-8.2v-.1l3.2-3.1.4.7c.5 1 1.1 2.2 1.8 3.4 0 0 0 .1.1.1l.1.2c1.6 2.9 3 4.9 4.7 6.5 1.6 1.7 3.5 3.2 6.3 4.9.1 0 .1.1.2.1 0 0 .1 0 .1.1 1.1.7 2.2 1.3 3.3 1.9l.7.3z"/>
			<path id="aXMLID_76_" class="ast1" d="M96.7 351.6l-13.6 11.7c-.4-.5-.9-1.1-1.3-1.5-.5-.5-1-1-1.5-1.4l12.2-13.2c1.3 1.6 2.7 3.1 4.2 4.4z"/>
			<path id="aXMLID_75_" class="ast1" d="M84.8 368.7l-2.1 2.1c-.1-.2-.2-.5-.4-.8-1.2-2.5-2.3-4.1-3.5-5.4-1.5-1.5-3.4-2.7-5.1-3.6-.3-.2-.6-.3-.8-.5l2.2-2.1s.2-.1.2 0c1.5.7 2.9 1.6 4.2 2.6 1.1.9 2.1 2 3 3.1 1 1.3 1.8 2.8 2.4 4.3 0 .1 0 .2-.1.3z"/>
			<path id="aXMLID_74_" class="ast1" d="M78.1 365.3c1.1 1.1 2 2.5 3 4.5-1.4.9-3.3-.7-3.4-.7l-.2-.2c-.1-.1-.2-.1-.3 0l-.2.2c-1.1 1.1-2.8.2-3 .1-.2-.4-.8-2 .2-3l.2-.2c.1-.1.1-.2 0-.3l-.2-.2c-.2-.2-1.5-2.1-.6-3.4 1.6 1 3.2 1.9 4.5 3.2z"/>
			</g>
			<g id="aXMLID_66_" class="ast2">
			<path id="aXMLID_72_" class="ast1" d="M204.3 345.5c-1.4 1.5-3.3 2.9-5.7 4.5l-17.8-17.2c1.8-1.4 3.6-2.9 5.3-4.5l18.2 17.2z"/>
			<path id="aXMLID_71_" class="ast1" d="M208.6 339.5c-1.3 2.2-2.5 3.9-3.7 5.3l-18.2-17.2c.4-.4.8-.8 1.1-1.2 1-1.1 2-2.3 2.9-3.5.1-.1.2-.3.3-.4l17.6 17z"/>
			<path id="aXMLID_70_" class="ast1" d="M215.4 338.5c-1.1 2.9-2.7 5.7-4.7 8.2l-.1.1-.1.1-2.1 2.4c-.7.8-1.5 1.5-2.3 2.1 0 0-.1 0-.1.1-.1 0-.1.1-.2.1-2.4 2-5.1 3.7-8 5h-.2l-3.2-3.1.7-.4c1.1-.6 2.2-1.2 3.3-1.9 0 0 .1 0 .1-.1.1 0 .1-.1.2-.1h.1c2.8-1.7 4.8-3.2 6.3-4.9 1.6-1.6 3.1-3.6 4.7-6.5l.1-.2s0-.1.1-.1c.6-1.2 1.3-2.4 1.8-3.4l.4-.7 3.2 3.1v.2z"/>
			<path id="aXMLID_69_" class="ast1" d="M211.2 347.8l12.2 13.2c-.5.4-1 .9-1.5 1.4s-.9 1-1.3 1.5L207 352.1c1.5-1.3 3-2.7 4.2-4.3z"/>
			<path id="aXMLID_68_" class="ast1" d="M230.9 361.1c-.3.2-.6.3-.8.5-1.7.9-3.7 2.1-5.1 3.6-1.3 1.3-2.4 2.9-3.6 5.4-.1.3-.2.5-.4.8l-2.1-2.1s-.1-.2 0-.2c.6-1.5 1.4-3 2.4-4.3.9-1.2 1.9-2.2 3-3.1 1.3-1.1 2.7-1.9 4.2-2.6H228.8l2.1 2z"/>
			<path id="aXMLID_67_" class="ast1" d="M229.5 366.8c1.1 1 .4 2.6.2 3-.3.2-2 .9-3-.1l-.2-.2c-.1-.1-.2-.1-.3 0l-.2.2s-2 1.6-3.4.7c1-2.1 1.9-3.4 3.1-4.5 1.3-1.3 2.8-2.3 4.3-3.1.9 1.3-.4 3.2-.6 3.4l-.2.2c-.1.1-.1.2 0 .3l.3.1z"/>
			</g>
			<path id="aXMLID_3_" class="ast1" d="M245.5 284.4l-13.9-2.4-32.3-5.6c.1.3.2.6.2.9.2.9.4 1.7.6 2.5V280.1L302.6 298H201V298.3c-.1.5-.1.9-.2 1.4 0 .2-.1.5-.1.7 0 .2-.1.5-.1.7 0 .1 0 .3-.1.4-.1.4-.1.7-.2 1.1l-.2.8-.1.6c0 .1 0 .2-.1.2 0 .2-.1.3-.1.5l-.2.7c-1.1 3.9-2.6 7.7-4.6 11.1-.1.2-.3.5-.4.7-.7 1.1-1.4 2.3-2.2 3.4l41-7.1 68.8-12 20.9-3.6-77.6-13.5zm-71.2 52.5l-2.1 1.1-.7.3h-.2l-.5.2-6.8 38.8-12.5 71.7V342.8H147.4l-.7-.1-.7-.1h-.8l-.5-.1c-.9-.1-1.9-.2-2.8-.4l-.8-.1-.4-.1-.4-.1-1.5-.4-1.2-.3c-.1 0-.3-.1-.4-.1l-.8-.2c-.3-.1-.5-.2-.8-.3-.6-.2-1.1-.4-1.5-.5l-1.5-.6c-.2-.1-.4-.2-.6-.2l-.2-.1c-.1-.1-.2-.1-.4-.2-.1-.1-.2-.1-.4-.2s-.3-.1-.5-.2c-.3-.1-.7-.3-1-.5l-1.2-.6 23 132 13.5-77.5 2.4-13.7v-.2l.1-.6 7.1-40.7c.2 0 .1.1-.1.2zm-22.7-39zm20-56.4l-4.1-23.6-2.4-13.9-13.6-77.6-19 109.2c.3-.1.6-.1.9-.2.8-.1 1.6-.3 2.5-.4h.2l15.4-88.4v88.3h.1c1 .1 2 .3 3 .5 1.1.2 2.3.5 3.4.7.3.1.6.1.8.2l.6.2c.5.1 1 .3 1.5.4l.5.2.5.2c.3.1.7.2 1.1.4 1.7.6 3.4 1.3 5 2 1 .4 1.8.9 2.6 1.3.5.3.8.4 1 .5zm-62.2 76l-.1-.1c-.1-.2-.2-.3-.3-.5L75.4 311 .3 297.9h104.2v-.3-2.2-.8l.1-.7v-.5-.3l.2-1.6c0-.2.1-.5.1-.7v-.2l.1-.7.1-.8.5-1.9.1-.4.4-1.5.5-1.5c.6-1.7 1.3-3.4 2.2-5 .4-.8.9-1.7 1.5-2.6l.1-.2.2-.3c.1-.1.1-.2.2-.3l-47.1 7.9-6 1.1-77.6 13.5 77.5 13.5 13.9 2.4 39.6 6.9c-.1-.1-.1-.2-.2-.4-.6-.9-1.1-1.9-1.5-2.8z"/>
			<path id="alogo_3_" class="ast1" d="M200.6 291.3c0 .8 0 1.6-.1 2.4V295.3c0 .4-.1.9-.1 1.3 0 .2 0 .5-.1.7l-.1.6v.1c-.1.5-.1 1-.2 1.5s-.2 1-.3 1.4c-.1.5-.2 1-.3 1.4-.1.5-.2.9-.3 1.4-.1.2-.1.5-.2.7l-.2.7c-1.1 3.8-2.6 7.5-4.5 10.9-.1.2-.3.5-.4.7-.8 1.4-1.6 2.7-2.6 4-.3.4-.6.8-.8 1.1-.1.2-.2.3-.4.5-.9 1.2-1.9 2.3-2.9 3.4-.4.4-.8.8-1.1 1.2l-.6.6c-1.7 1.6-3.4 3.1-5.3 4.5-.7.5-1.5 1.1-2.2 1.6-.9.5-1.7 1.1-2.6 1.6-.1 0-.2.1-.3.2-.1 0-.1.1-.2.1-.3.2-.6.3-.9.5l-2.1 1-.7.3-.2.1-1.2.5c-.5.2-1 .4-1.4.6-.5.2-1 .4-1.5.5l-1.5.5c-.2.1-.4.1-.5.2l-1 .3-.8.2c-.2.1-.5.1-.8.2l-1.5.4-1.5.3c-.3.1-.7.1-1 .2-.2 0-.4.1-.6.1l-1.5.2-.8.1c-.3 0-.5 0-.8.1l-1.2.1c-.5 0-1.4.1-1.9.1H147.3l-.7-.1-.7-.1h-.8c-1.1-.1-2.2-.3-3.2-.5l-.8-.1-.4-.1-.4-.1-1.5-.4c-.5-.1-1-.3-1.5-.4l-.8-.2c-.3-.1-.5-.2-.8-.3-.5-.2-1-.3-1.5-.5l-1.5-.6c-.3-.1-.5-.2-.7-.3s-.5-.2-.7-.3c-.5-.2-1-.4-1.4-.7l-1.4-.7c-.1-.1-.2-.1-.3-.2-.2-.1-.5-.3-.7-.4-.1-.1-.3-.1-.4-.2-.2-.1-.5-.3-.7-.4l-.7-.4c-.4-.3-.9-.6-1.3-.9-.7-.5-1.3-.9-1.9-1.4-1-.8-2.1-1.7-3-2.6l-2.1-2.1-.6-.6c-.6-.6-1.1-1.3-1.7-1.9-.7-.9-1.5-1.9-2.1-2.9-.1-.1-.2-.3-.3-.4l-.6-.9-.6-.9c-.6-1-1.1-2-1.6-3-.4-.9-.9-1.8-1.2-2.7-.8-2-1.5-4-2-6.1-.9-3.4-1.3-6.9-1.4-10.3v-.3-2.2-.9l.1-.7v-.4-.4l.2-1.6c0-.3.1-.5.1-.8l.1-.8.1-.8.5-1.9.1-.4.4-1.5.5-1.5c.6-1.7 1.3-3.3 2.1-4.9.5-.9 1-1.8 1.5-2.6.2-.4.4-.7.7-1 .1-.1.1-.2.2-.3.3-.4.6-.9.9-1.3.3-.4.5-.7.8-1 .6-.8 1.2-1.5 1.9-2.2l.3-.3c1.1-1.2 2.3-2.4 3.6-3.4.1-.1.3-.2.4-.4.9-.7 1.8-1.4 2.7-2 1.5-1 3-1.9 4.6-2.7.2-.1.3-.2.5-.2.1 0 .2-.1.3-.1.1-.1.3-.1.4-.2.2-.1.3-.2.5-.2.8-.4 1.7-.7 2.6-1 .7-.3 1.5-.5 2.3-.7.5-.1 1-.3 1.5-.4.1 0 .2 0 .3-.1l1.2-.3c1-.2 2-.4 3.1-.5l.8-.1c.3 0 .5-.1.8-.1l1.5-.1H147.6l1.4.1c.5.1 1 .1 1.6.2.3 0 .5.1.8.1l.7.1c2 .4 3.9.9 5.8 1.6 3.8 1.4 7.2 3.5 10.2 6 .3.2.5.5.8.7l.9.9c1.1 1 2.1 2.2 3.1 3.3.2.3.5.6.7.9.3.5.7.9 1 1.4.2.3.5.7.7 1.1.1.2.2.3.3.5.2.3.4.7.6 1 .1.1.2.3.2.4 0 0 0 .1.1.1.2.3.4.7.5 1l.6 1.2v.1c.2.4.4.9.6 1.3.3.7.5 1.3.7 2 .1.2.1.3.2.5l.1.4v.1l.3 1.2c.1.4.2.8.3 1.3.2.9.4 1.8.5 2.8.1.5.1.9.2 1.4v.6l.1.7.1.7v3.7l-.1.7c0 .4-.1.9-.2 1.4l-.1.7c0 .1-.1.3-.1.4v.3c-.1.9-.4 1.8-.6 2.7-.5 1.8-1.1 3.4-1.8 5.1-.8 1.6-1.6 3.2-2.6 4.6-.1.2-.2.3-.3.5-.1.1-.1.2-.2.3 0 0 0 .1-.1.1-.1.1-.2.3-.3.4-.2.3-.4.6-.7.9-.1.2-.3.3-.4.5l-.2.2v.1l-.1.1c-.1.1-.2.2-.2.3-.3.3-.5.6-.8.8l-.9.9-.7.7c-.1.1-.3.2-.4.4-.3.3-.7.6-1 .9-.2.2-.4.3-.6.5l-.2.2c-.3.2-.5.4-.8.6l-.2.2-.9.6c-.3.2-.6.4-.9.5-.1 0-.1.1-.2.1h-.1c-.3.2-.7.4-1 .6-1.5.8-3 1.4-4.6 2-.4.1-.8.3-1.2.4l-1.2.3c-.8.2-1.6.4-2.4.5-.7.1-1.5.2-2.2.3l-1 .1H147.5c-.4 0-.8-.1-1.1-.1-.4 0-.8-.1-1.2-.1-.4-.1-.8-.1-1.2-.2-.3-.1-.7-.1-1-.2h-.2c-.3-.1-.7-.2-1-.2-.3-.1-.7-.2-1-.3l-.9-.3h-.1c-.2-.1-.3-.1-.5-.2 0 0-.1 0-.1-.1-.4-.2-.8-.3-1.2-.5-.3-.1-.6-.3-.9-.4-.1-.1-.3-.1-.4-.2-.3-.1-.5-.3-.8-.4-.1-.1-.3-.1-.4-.2-.2-.1-.4-.2-.6-.4-.1 0-.1-.1-.2-.1-.3-.2-.6-.3-.8-.5-.2-.2-.5-.3-.7-.5-.1-.1-.2-.1-.3-.2l-.3-.2h-.1c-.2-.2-.4-.3-.6-.4-.2-.2-.4-.3-.6-.5-.6-.5-1.1-.9-1.6-1.4-1-1-1.9-2-2.8-3.1-.4-.5-.7-.9-1-1.4l-.2-.2c-.2-.3-.4-.6-.5-.8l-.3-.4-.2-.4c-.2-.3-.4-.7-.5-1-.1-.3-.3-.6-.4-.8l-.1-.1s0-.1-.1-.1v-.1c-.1-.2-.2-.4-.2-.5s0-.1-.1-.2-.1-.2-.1-.3-.1-.1-.1-.2v-.1c-.1-.2-.1-.4-.2-.6-.1-.2-.2-.5-.3-.7-.1-.3-.2-.5-.2-.8-.2-.5-.3-1-.4-1.5-.1-.3-.1-.5-.2-.8-.1-.5-.2-1-.3-1.6 0-.3-.1-.5-.1-.8 0-.3-.1-.5-.1-.8 0-.2-.1-.5-.1-.7v-.2-.3-.3-.8c0-2.4.3-4.7.9-6.9.6-2 1.4-4 2.3-5.6.2-.3.4-.6.6-1l.1-.1c.2-.3.3-.5.5-.8.6-.9 1.3-1.8 2.1-2.6l.2-.2s.1 0 .1-.1l.3-.3.3-.3c.3-.3.6-.6.9-.8.2-.2.3-.3.5-.4.2-.2.3-.3.5-.4h.1l.1-.1c.1-.1.3-.2.4-.3.2-.1.4-.3.6-.4.6-.5 1.3-.9 1.9-1.2.2-.1.3-.2.5-.3l.6-.3.6-.3c.9-.4 1.8-.8 2.6-1.1.1 0 .2-.1.3-.1.2-.1.4-.1.6-.2.2-.1.5-.1.7-.2s.4-.1.6-.2c.2-.1.4-.1.6-.1.2 0 .4-.1.5-.1.2 0 .4-.1.6-.1 1.8-.3 3.3-.4 4.2-.4h1.1-1.1c-.5 0-1.2.1-2.1.1-.3 0-.6.1-.9.1-.4.1-.8.1-1.3.2-.2.1-.5.1-.7.2-.1 0-.3.1-.4.1h-.1c-.1 0-.2 0-.3.1l-.9.3c-.2.1-.4.1-.6.2-.2.1-.4.1-.6.2-.1 0-.2.1-.3.1-.1.1-.2.1-.4.1-.1 0-.2.1-.4.2-.1 0-.2.1-.3.1s-.2.1-.3.1c0 0-.1 0-.1.1-.2.1-.3.1-.5.2s-.4.2-.7.3c-1.4.7-2.9 1.7-4.4 2.9-.5.4-1 .9-1.5 1.4l-.9.9c-.1.2-.3.3-.4.5-.1.2-.3.3-.4.5-.4.5-.8 1-1.2 1.6-.1.2-.2.3-.3.5-.1.2-.3.4-.4.7 0 .1-.1.1-.1.2-.2.3-.4.7-.6 1-.1.1-.1.2-.1.3v.1c-.6 1.3-1 2.6-1.4 4-.5 2-.8 4.1-.7 6.2v-.4 2.5c0 .2 0 .4.1.6.1 1.6.4 3.2.8 4.7.2.8.5 1.5.7 2.3.6 1.5 1.3 3 2.1 4.5l.2.4.3.4c.2.3.3.5.5.8 0 .1.1.1.1.2.3.5.7.9 1 1.4.8 1 1.7 2 2.7 2.9.4.4.9.8 1.4 1.2 1.6 1.3 3.4 2.4 5.3 3.3.1 0 .2.1.3.1.2.1.5.2.7.3 1 .4 1.9.7 3 1 1.4.4 2.8.7 4.2.8.4 0 .7.1 1.1.1.4 0 .7 0 1.1.1h2.2c.3 0 .6 0 .9-.1h.6c.3 0 .5-.1.8-.1.7-.1 1.5-.2 2.2-.4.7-.1 1.5-.3 2.2-.5.4-.1.7-.2 1.1-.3.4-.1.7-.2 1.1-.4 1.3-.5 2.5-1 3.7-1.7.2-.1.3-.2.5-.3 1.8-1 3.5-2.2 5.1-3.6l.6-.6c.5-.5 1-1 1.5-1.6l.1-.1.1-.1c.8-.9 1.6-1.8 2.3-2.8l-.1-.1c.1-.1.1-.2.2-.3.9-1.4 1.6-2.8 2.3-4.3.6-1.5 1.2-3.1 1.6-4.7.2-.8.4-1.6.5-2.4 0-.1 0-.2.1-.3v-.3l.1-.6c.1-.4.1-.8.1-1.2.1-.8.1-1.5.1-2.3v-1.5c0-1.1 0-2.1-.1-3.2l-.1-.6v-.6c-.1-.4-.1-.8-.2-1.3-.2-.8-.3-1.7-.5-2.5l-.3-1.2c-.4-1.3-.8-2.5-1.3-3.7-.3-.7-.7-1.4-1-2.1l-.3-.6c-.1-.2-.2-.3-.3-.5-.1-.2-.2-.4-.4-.6 0-.1-.1-.1-.1-.2-.1-.2-.2-.3-.3-.5-.2-.4-.5-.7-.7-1.1-.2-.3-.5-.7-.7-1l-.1-.1c-.2-.3-.5-.6-.7-.9-.2-.2-.4-.5-.6-.7l-.5-.5c-.2-.2-.4-.4-.6-.7l-.6-.6-.5-.5-.3-.3c-.2-.2-.4-.3-.5-.5-.3-.3-.6-.6-1-.8-2.8-2.2-5.9-4-9.3-5.2-1.7-.6-3.4-1-5.2-1.3l-.7-.1c-.2 0-.4-.1-.7-.1l-1.3-.1-1.4-.1h-2.7c-.5 0-.9 0-1.4.1l-1.4.1c-.2 0-.5.1-.7.1l-.7.1c-1.8.3-3.6.7-5.3 1.2-1 .3-2.1.7-3.1 1.1-.3.1-.5.2-.8.3-.2.1-.3.1-.5.2s-.5.2-.7.4c-.3.2-.7.4-1 .5-.3.2-.6.3-.9.5-.2.1-.5.3-.7.4-.2.1-.4.2-.6.4-.1.1-.2.2-.4.2 0 0-.1 0-.1.1-.4.2-.7.5-1.1.7l-1.2.9c-.3.2-.6.4-.8.7-.1 0-.1.1-.1.1-.3.3-.7.6-1 .9s-.7.6-1 .9l-.9.9c-.2.2-.3.4-.5.5v.1c-.2.2-.4.4-.5.6-.2.2-.4.5-.6.7-.3.4-.6.8-1 1.2l-.1.1c-.1.1-.2.2-.3.4-.2.2-.4.5-.5.8l-.1.1v.1c-.2.2-.3.5-.5.8 0 .1-.1.1-.1.2-.1.1-.2.3-.2.4l-.1.1c-.3.5-.6 1.1-.9 1.6l-.3.6s0 .1-.1.1c-.1.2-.2.5-.4.7-.3.6-.5 1.1-.7 1.7-.1.2-.2.5-.3.7 0 .1-.1.3-.1.4-.1.4-.3.7-.4 1.1l-.4 1.3-.4 1.3-.1.3-.1.3-.1.7-.2.7-.1.7-.1.7c0 .2-.1.5-.1.7l-.1 1.3V298.5c0 .8.1 1.5.2 2.3 0 .3.1.7.1 1v.3c0 .3.1.6.1.8v.1c.1.3.1.7.2 1 .1.4.1.7.2 1.1 0 .2.1.4.1.6.1.3.1.5.2.8.1.3.1.6.2.9v.1c.5 1.7 1.1 3.4 1.8 5.1.8 1.7 1.6 3.3 2.6 4.9 0 .1.1.1.1.2s.1.2.1.2c.1.1.2.3.3.4.6.9 1.3 1.9 2 2.7.2.3.5.6.7.9l.4.4c1.1 1.2 2.2 2.4 3.4 3.5 1 .9 2.1 1.7 3.1 2.5l.1.1c.4.3.8.5 1.1.8 0 0 .1 0 .1.1.3.2.7.4 1.1.7l.6.4.6.3c.1.1.3.2.4.2l.6.3c.1 0 .1.1.2.1l.4.2.6.3.2.1 1.2.6c.4.2.8.4 1.3.5l1.3.5 1.3.4c.2.1.4.1.6.2l.7.2c.4.1.9.2 1.3.3l1.3.3.3.1.3.1.7.1c.9.2 1.7.2 2.6.3h1.5l.7.1h3.5c.4 0 .7 0 1.1-.1l1.3-.1c.2 0 .5 0 .7-.1l.7-.1 1.3-.2 1.3-.3c.4-.1.9-.2 1.3-.3l1.3-.3c.2 0 .4-.1.5-.1l.7-.2.6-.2c.2-.1.4-.1.6-.2l1.2-.5c.4-.1.8-.3 1.2-.5.4-.2.8-.3 1.2-.5l1.2-.6.6-.3.6-.3.4-.2.6-.3.2-.1c.3-.2.6-.4.9-.5.3-.2.6-.4.9-.5.1-.1.2-.1.3-.2.4-.3.8-.5 1.2-.8.5-.4 1-.7 1.5-1.1.3-.2.5-.4.8-.6.2-.1.4-.3.5-.4 1.1-.9 2.2-2 3.3-3 .4-.4.9-.9 1.3-1.4l.3-.3.2-.2.1-.1c.1-.1.2-.2.2-.3.5-.6 1.1-1.2 1.6-1.9h-.1c.3-.4.6-.7.8-1.1.1-.2.2-.4.4-.5.1-.2.2-.4.4-.6.8-1.2 1.5-2.4 2.1-3.6 1.6-3 2.7-6.1 3.6-9.3l.2-.6c0-.2.1-.4.1-.6l.2-1.2c.1-.4.1-.8.2-1.2.1-.4.1-.8.2-1.2 0-.3.1-.6.1-.9v-.2l.1-.6c0-.2 0-.4.1-.6 0-.4.1-.9.1-1.3V294v-1.8V291.3v-1.1c0-.5-.1-1.1-.1-1.6 0-.2 0-.4-.1-.6v-.4c0-.2 0-.4-.1-.5 0-.5-.1-1-.2-1.5 0-.4-.1-.8-.2-1.1-.1-.7-.3-1.4-.4-2.1-.1-.2-.1-.5-.2-.7 0-.1-.1-.3-.1-.4-.1-.3-.1-.5-.2-.8 0-.1 0-.2-.1-.2-.1-.2-.1-.4-.2-.6 0-.2-.1-.4-.2-.5-.1-.2-.1-.3-.2-.5s-.1-.3-.1-.5c0-.1-.1-.2-.1-.3v-.1l-.3-.9c-.1-.2-.2-.4-.2-.6-.1-.2-.1-.4-.2-.6-.1-.2-.1-.3-.2-.5s-.2-.4-.2-.6c0-.1 0-.1-.1-.2-.1-.2-.1-.3-.2-.5-.2-.4-.4-.8-.5-1.2-.1-.3-.2-.5-.4-.8 0-.1-.1-.1-.1-.2-.1-.2-.2-.5-.4-.7 0-.1-.1-.2-.1-.2-.1-.2-.3-.5-.4-.7 0 0 0-.1-.1-.1-.2-.3-.3-.6-.5-.8-.1-.3-.3-.5-.4-.7-.2-.2-.3-.5-.5-.7-.2-.3-.4-.6-.5-.8-.2-.4-.5-.8-.8-1.1-.1-.2-.3-.4-.4-.6-.4-.6-.9-1.2-1.4-1.8-.2-.3-.5-.6-.7-.9l-.2-.2c-.2-.3-.5-.6-.7-.8-.2-.3-.4-.5-.7-.8-.1-.1-.2-.2-.2-.3l-.7-.7-.2-.2-.4-.4c-.2-.2-.4-.4-.6-.5-.2-.2-.5-.4-.7-.6-.2-.2-.4-.3-.5-.5-.2-.2-.5-.4-.7-.6-.2-.2-.4-.4-.7-.5-.2-.1-.4-.3-.6-.4-.2-.2-.4-.3-.6-.5-.2-.2-.4-.3-.6-.5-.4-.3-.7-.5-1.1-.8-.4-.3-.7-.5-1.1-.8-.2-.1-.3-.2-.5-.3-1.1-.7-2.2-1.3-3.3-1.9-1.7-.9-3.5-1.7-5.2-2.3l-1.8-.6-.9-.3-.4-.1-.4-.1c-.3-.1-.6-.2-.9-.2-.3-.1-.6-.2-.9-.2-1.2-.2-2.3-.5-3.5-.7-.4-.1-.8-.1-1.2-.2-.7-.1-1.4-.1-2-.2-.3 0-.6 0-.9-.1-.3 0-.6 0-.9-.1h-4.2c-.4 0-.9 0-1.3.1-.4 0-.7 0-1.1.1h-.1c-.2 0-.5 0-.7.1h-.2c-.2 0-.5.1-.8.1-.2 0-.5.1-.7.1-.3 0-.6.1-.9.1-.2 0-.4.1-.6.1h-.2c-.2 0-.4.1-.6.1-.2 0-.5.1-.7.1s-.3.1-.4.1c-.3.1-.6.1-.9.2-.1 0-.2 0-.3.1-.5.1-.9.2-1.4.3-.3.1-.6.2-.9.2l-1.2.3c-.8.2-1.6.5-2.4.8-.2.1-.4.1-.6.2-.2.1-.3.1-.5.2s-.5.2-.7.3l-2.1.9c-.1 0-.1 0-.2.1-.4.2-.7.3-1.1.5-.3.2-.7.4-1 .5-.7.4-1.3.6-1.9 1-.1.1-.2.1-.3.2-.2.1-.5.3-.7.4-.1.1-.3.1-.4.2-.1.1-.2.1-.4.2-.3.2-.5.4-.8.5-.3.2-.5.4-.8.5-.3.2-.5.3-.7.5s-.5.4-.7.5c-.5.3-.9.6-1.3.9-.7.6-1.4 1.1-2 1.6 0 .1 6.4 3.7 6.4 3.7l1 .5c-3.5.2-7.4.9-11.3 1.8-.6.1-1.1.3-1.7.4h-.1c-2.7.7-5.4 1.6-8 2.5-1.9.7-3.7 1.4-5.4 2.1-.3.1-.5.2-.8.3H92c-.2.1-.4.2-.5.2.1-.2.2-.4.3-.7.7-1.4 1.3-3 2-4.6 1.4-3.4 2.7-7.2 3.8-10.8.3-1 .5-1.9.8-2.9.2-.8.4-1.7.6-2.5.5-2.2.8-4.3 1-6.3l.4.9.3.7s3.7 6 3.9 6c0 0 2.3-1.9 5.2-3.9 0 0 .1 0 .1-.1l-.1-.1.1.1s.1 0 .1-.1c.2-.2.5-.3.7-.4.5-.3 1-.6 1.5-1h.1c.1-.1.2-.1.3-.2.7-.4 1.4-.8 2.2-1.2.7-.4 1.5-.8 2.2-1.1 0 0 .1 0 .1-.1.2-.1.4-.2.7-.3l.6-.3c.1-.1.2-.1.3-.1.3-.1.6-.3 1-.4 1.4-.6 2.8-1.2 4.4-1.7 2.4-.8 4.9-1.5 7.7-2.1.3-.1.5-.1.8-.2.4-.1.8-.1 1.2-.2.8-.1 1.6-.3 2.5-.4 2.5-.3 5.2-.5 8-.5h4.4c.6 0 1.2.1 1.9.2.4.1.7.1 1.1.1h.2c1 .1 2 .3 3 .5 1.4.2 2.8.6 4.2.9l2.1.6.5.2.5.2c.3.1.7.2 1.1.4 1.6.6 3.3 1.2 4.9 2 .9.4 1.7.8 2.6 1.3.3.1.6.3.8.5.1.1.3.2.4.2 2.6 1.4 5.1 3.1 7.5 5.1.3.2.6.5.8.7 1.6 1.3 3.1 2.7 4.6 4.2l.8.8.4.4c2 2.2 3.9 4.7 5.6 7.3.4.6.7 1.2 1.1 1.8l1.5 2.7c.3.5.6 1.1.8 1.6.7 1.5 1.4 3 2 4.6.6 1.5 1.1 3 1.5 4.5l.3 1.2c.2.8.4 1.7.6 2.5.2 1.1.4 2.1.6 3.2.3 2.8.5 5.6.5 8.3z"/>
		</symbol>

		<symbol id="icon-author" viewBox="0 0 490 490" xmlns="http://www.w3.org/2000/svg">
			<g>
				<path d="M311.5,184.4c0,36.1-29.2,65.3-65.3,65.3s-65.3-29.2-65.3-65.3s29.2-65.3,65.3-65.3S311.5,148.4,311.5,184.4z M245,0
					C109.9,0,0,109.9,0,245s109.9,245,245,245s245-109.9,245-245S380.1,0,245,0z M357.3,404.7c-8.2-65.7-35.2-133-111.1-133
					c-76.5,0-103.3,68.3-111.3,134.5C83.5,371,49.7,311.9,49.7,245c0-107.7,87.6-195.3,195.3-195.3S440.3,137.3,440.3,245
					C440.3,310.9,407.5,369.3,357.3,404.7z"/>
			</g>
		</symbol>

		<symbol id="icon-views" viewBox="0 0 102.8 61.3" xmlns="http://www.w3.org/2000/svg">
			<g>
				<path d="M51.4,0C31.8,0,13.9,10.7,0.8,28.2c-1.1,1.4-1.1,3.4,0,4.9c13.1,17.5,31,28.2,50.6,28.2S88.8,50.5,102,33.1
					c1.1-1.4,1.1-3.4,0-4.9C88.8,10.7,71,0,51.4,0z M52.8,52.2c-13,0.8-23.8-9.9-23-23C30.5,18.5,39.2,9.7,50,9.1C63,8.2,73.8,19,73,32
					C72.3,42.8,63.6,51.5,52.8,52.2z M52.2,42.2c-7,0.4-12.8-5.3-12.4-12.4c0.4-5.8,5.1-10.5,10.9-10.9c7-0.4,12.8,5.3,12.4,12.4
					C62.6,37.2,57.9,41.9,52.2,42.2z"/>
			</g>
		</symbol>
		<symbol id="icon-likes" viewBox="0 0 81 70.7" xmlns="http://www.w3.org/2000/svg">
			<g>
				<path d="M75.3,5.7C71.4,1.9,66.1,0,59.4,0c-1.9,0-3.8,0.3-5.7,1c-1.9,0.7-3.8,1.6-5.4,2.7c-1.7,1.1-3.1,2.2-4.3,3.2
					c-1.2,1-2.4,2-3.4,3.1c-1.1-1.1-2.2-2.1-3.4-3.1c-1.2-1-2.6-2-4.3-3.2c-1.7-1.1-3.5-2-5.4-2.7c-1.9-0.7-3.8-1-5.7-1
					c-6.8,0-12,1.9-15.9,5.7C1.9,9.5,0,14.8,0,21.5c0,2.1,0.4,4.2,1.1,6.4c0.7,2.2,1.5,4,2.4,5.6c0.9,1.5,1.9,3,3.1,4.5
					c1.1,1.5,2,2.5,2.5,3c0.5,0.6,0.9,1,1.2,1.2l28.2,27.7c0.5,0.6,1.2,0.8,2,0.8c0.8,0,1.4-0.3,2-0.8l28.2-27.6
					c6.9-7,10.4-13.9,10.4-20.7C81,14.8,79.1,9.5,75.3,5.7z"/>
			</g>
		</symbol>

		<symbol id="icon-close" viewBox="0 0 47.971 47.971">
		<g>
			<path d="M28.228,23.986L47.092,5.122c1.172-1.171,1.172-3.071,0-4.242c-1.172-1.172-3.07-1.172-4.242,0L23.986,19.744L5.121,0.88
				c-1.172-1.172-3.07-1.172-4.242,0c-1.172,1.171-1.172,3.071,0,4.242l18.865,18.864L0.879,42.85c-1.172,1.171-1.172,3.071,0,4.242
				C1.465,47.677,2.233,47.97,3,47.97s1.535-0.293,2.121-0.879l18.865-18.864L42.85,47.091c0.586,0.586,1.354,0.879,2.121,0.879
				s1.535-0.293,2.121-0.879c1.172-1.171,1.172-3.071,0-4.242L28.228,23.986z"/>
		</g>
		</symbol>

		<symbol id="icon-success" viewBox="0 0 489.327 489.327">
			<g>
				<path d="M478.483,273.213l-9.2-12.6c-7.6-10.4-7.7-24.5-0.3-35.1l9-12.7c10.4-14.8,5.6-35.3-10.4-43.9l-13.7-7.4    c-11.4-6.1-17.6-18.8-15.5-31.5l2.6-15.4c3-17.8-10.3-34.3-28.4-35l-15.6-0.7c-12.9-0.5-24-9.3-27.6-21.7l-4.3-15    c-5-17.4-24.1-26.4-40.8-19.2l-14.3,6.2c-11.9,5.1-25.6,2.1-34.3-7.6l-10.4-11.6c-12.1-13.5-33.2-13.3-45.1,0.3l-10.2,11.8    c-8.5,9.7-22.2,13-34.1,8.1l-14.4-5.9c-16.7-6.9-35.7,2.4-40.5,19.9l-4.1,15c-3.3,12.6-14.2,21.5-27.1,22.2l-15.6,0.9    c-18.1,1-31.1,17.7-27.8,35.4l2.8,15.3c2.3,12.7-3.7,25.5-15,31.7l-13.6,7.6c-15.8,8.8-20.4,29.4-9.7,44l9.2,12.6    c7.6,10.4,7.7,24.5,0.3,35.1l-9,12.7c-10.4,14.8-5.6,35.3,10.4,43.9l13.7,7.4c11.4,6.1,17.6,18.8,15.5,31.5l-2.7,15.3    c-3,17.8,10.3,34.3,28.4,35l15.6,0.7c12.9,0.5,24,9.3,27.6,21.7l4.3,15c5,17.4,24.1,26.4,40.8,19.2l14.3-6.2    c11.9-5.1,25.6-2.1,34.3,7.5l10.4,11.6c12.1,13.5,33.2,13.3,45.1-0.3l10.2-11.8c8.5-9.7,22.2-13,34.1-8.1l14.4,5.9    c16.7,6.9,35.7-2.4,40.5-19.9l4.1-15c3.4-12.4,14.4-21.3,27.3-22.1l15.6-0.9c18.1-1,31.1-17.7,27.8-35.4l-2.8-15.3    c-2.3-12.7,3.7-25.5,15-31.7l13.6-7.6C484.583,308.513,489.083,287.813,478.483,273.213z M244.683,402.713    c-87.2,0-157.9-70.7-157.9-157.9s70.7-157.9,157.9-157.9s157.9,70.7,157.9,157.9S331.883,402.713,244.683,402.713z" fill="#f15a24"/>
				<path d="M224.483,249.013l-14-14.1c-8.3-8.4-21.9-8.4-30.3-0.1l0,0c-8.4,8.3-8.4,21.9-0.1,30.3l14,14.1l15.6,15.6    c8.1,8.2,21.3,8.2,29.5,0.1l15.6-15.5l54.4-54.1c8.4-8.3,8.4-21.9,0.1-30.3l0,0c-8.3-8.4-21.9-8.4-30.3-0.1L224.483,249.013z" fill="#f15a24"/>
			</g>
		</symbol>

	</defs>
</svg>